<svg width="60" height="60" viewBox="0 0 60 60" fill="none" xmlns="http://www.w3.org/2000/svg">
<rect width="60" height="60" rx="3" fill="#FA7436"/>
<path d="M32.3867 25.5871C32.3867 25.5871 31.0267 24.3871 28.64 25.2271C26.44 25.9871 26.5467 29.0005 29.88 29.8005" stroke="white" stroke-width="1.2" stroke-miterlimit="10" stroke-linecap="round" stroke-linejoin="round"/>
<path d="M27.1599 33.9601C27.1599 33.9601 28.5199 35.1601 30.9066 34.3201C33.1199 33.5467 33.0132 30.5334 29.6666 29.7334" stroke="white" stroke-width="1.2" stroke-miterlimit="10" stroke-linecap="round" stroke-linejoin="round"/>
<path d="M30.0134 24.9336V22.9736" stroke="white" stroke-width="1.2" stroke-miterlimit="10" stroke-linecap="round" stroke-linejoin="round"/>
<path d="M30.0134 36.5733V34.6133" stroke="white" stroke-width="1.2" stroke-miterlimit="10" stroke-linecap="round" stroke-linejoin="round"/>
<path d="M29.7732 42.0801C36.57 42.0801 42.0799 36.5702 42.0799 29.7735C42.0799 22.9767 36.57 17.4668 29.7732 17.4668C22.9764 17.4668 17.4666 22.9767 17.4666 29.7735C17.4666 36.5702 22.9764 42.0801 29.7732 42.0801Z" stroke="white" stroke-width="1.2" stroke-miterlimit="10" stroke-linecap="round" stroke-linejoin="round"/>
</svg>
