<svg width="1854" height="207" viewBox="0 0 1854 207" fill="none" xmlns="http://www.w3.org/2000/svg">
<g clip-path="url(#clip0_204_1198)">
<path d="M1680.68 34.7545L1800.03 4.70411C1800.67 4.54459 1801.35 4.63855 1801.88 5.02154C1803.04 5.85872 1803.02 7.47251 1802.08 8.33598L1778.01 30.3348C1778.01 30.3369 1778.01 30.3401 1778.01 30.3436L1782.41 75.1846C1782.55 76.7401 1780.97 77.9551 1779.5 77.3862L1747.45 64.914C1747.45 64.9125 1747.45 64.9133 1747.44 64.9161L1730.84 80.3633C1730.05 81.0996 1728.8 81.1202 1727.98 80.4104L1700.39 56.3906C1699.5 55.6151 1699.41 54.2641 1700.18 53.3733C1700.96 52.4823 1702.31 52.3894 1703.2 53.1648L1729.33 75.9149C1729.34 75.9182 1729.34 75.9182 1729.35 75.9146L1762.45 45.1088C1762.45 45.1028 1762.45 45.0917 1762.44 45.0908L1687.48 39.4504C1687.47 39.4496 1687.46 39.462 1687.47 39.4684L1695.28 46.2667C1696.17 47.0396 1696.35 48.4008 1695.6 49.3075C1694.83 50.2373 1693.45 50.3448 1692.55 49.5578L1679.78 38.445C1679.7 38.375 1679.62 38.2965 1679.56 38.2149C1678.54 37.0179 1679.17 35.1348 1680.68 34.7545ZM1750.94 61.6641C1750.93 61.6693 1750.93 61.6788 1750.94 61.6814L1776.45 71.6084C1776.46 71.6115 1776.47 71.6033 1776.46 71.5948L1766.68 47.0345C1766.67 47.0278 1766.67 47.0259 1766.66 47.0308L1750.94 61.6641ZM1709.37 36.8081L1767.66 41.1943C1768.47 41.256 1769.19 41.7851 1769.49 42.5351L1776.65 60.5097C1776.66 60.5209 1776.67 60.5167 1776.67 60.505L1773.85 31.7864C1773.85 31.7806 1773.85 31.7766 1773.84 31.7771L1709.37 36.7873C1709.35 36.7882 1709.35 36.8069 1709.37 36.8081ZM1706.3 32.7357L1774.87 27.407C1774.88 27.4067 1774.88 27.4059 1774.88 27.4043L1792.9 10.9302C1792.91 10.9229 1792.9 10.9097 1792.89 10.9123L1706.29 32.7154C1706.28 32.7185 1706.29 32.7368 1706.3 32.7357Z" fill="#FFE4C0"/>
<path d="M1801.22 92.6627C1801.8 92.5248 1802.4 92.3993 1803 92.2898C1804.16 92.0759 1805.27 92.844 1805.49 94.0056C1805.69 95.1208 1804.99 96.1934 1803.91 96.4663C1803.86 96.4777 1803.82 96.4877 1803.77 96.4961C1803.24 96.5933 1802.72 96.704 1802.2 96.8256C1801.05 97.0968 1799.9 96.3847 1799.63 95.2355C1799.36 94.0862 1800.07 92.9262 1801.22 92.6627Z" fill="#FFE4C0"/>
<path d="M1791.4 96.6898C1792.38 96.0699 1793.44 95.4941 1794.53 94.9784C1795.6 94.4746 1796.88 94.933 1797.38 96.0017C1797.88 97.0699 1797.42 98.3444 1796.36 98.8479C1795.42 99.2909 1794.51 99.7839 1793.67 100.313C1792.68 100.932 1791.34 100.625 1790.72 99.6383C1790.09 98.6375 1790.4 97.3174 1791.4 96.6898Z" fill="#FFE4C0"/>
<path d="M1817.82 110.447C1817.74 109.46 1817.59 108.461 1817.37 107.478C1817.11 106.326 1817.83 105.181 1818.98 104.919C1820.13 104.657 1821.28 105.379 1821.54 106.53C1821.81 107.717 1821.99 108.924 1822.08 110.118C1822.17 111.279 1821.28 112.326 1820.12 112.414C1818.94 112.505 1817.91 111.624 1817.82 110.447Z" fill="#FFE4C0"/>
<path d="M1810.93 125.802C1811.73 125.27 1812.48 124.654 1813.16 123.969C1813.99 123.133 1815.35 123.132 1816.18 123.967C1817.02 124.801 1817.02 126.155 1816.19 126.991C1815.3 127.876 1814.33 128.673 1813.3 129.362C1812.28 130.042 1810.85 129.699 1810.25 128.631C1809.71 127.669 1810.01 126.414 1810.93 125.802Z" fill="#FFE4C0"/>
<path d="M1797.79 85.0029C1798.28 83.9265 1799.55 83.4481 1800.62 83.934C1801.68 84.4106 1802.73 84.9354 1803.74 85.4944C1804.78 86.064 1805.15 87.3645 1804.58 88.3991C1804.02 89.4193 1802.7 89.8027 1801.68 89.2407C1800.76 88.7365 1799.81 88.2624 1798.86 87.8322C1797.78 87.3459 1797.31 86.0795 1797.79 85.0029Z" fill="#FFE4C0"/>
<path d="M1816.41 119.158C1816.8 118.268 1817.12 117.328 1817.35 116.364C1817.63 115.217 1818.79 114.515 1819.94 114.795C1821.09 115.076 1821.79 116.234 1821.51 117.381C1821.21 118.582 1820.82 119.756 1820.33 120.869C1819.83 122.022 1818.39 122.494 1817.3 121.867C1816.37 121.33 1815.98 120.143 1816.41 119.158Z" fill="#FFE4C0"/>
<path d="M1813.98 96.3462C1814.92 95.632 1816.26 95.8157 1816.97 96.7562C1817.76 97.7928 1818.45 98.834 1818.98 99.766C1819.55 100.796 1819.19 102.099 1818.16 102.678C1817.99 102.772 1817.81 102.842 1817.63 102.887C1816.72 103.117 1815.73 102.72 1815.25 101.859C1814.95 101.327 1814.41 100.458 1813.57 99.3422C1812.85 98.4017 1813.04 97.0603 1813.98 96.3462Z" fill="#FFE4C0"/>
<path d="M1806.56 89.7024C1807.29 88.7704 1808.63 88.6038 1809.56 89.33C1810.48 90.045 1811.38 90.8039 1812.23 91.5856C1813.1 92.3841 1813.16 93.7369 1812.36 94.6071C1811.57 95.4664 1810.2 95.5243 1809.34 94.7369C1808.57 94.033 1807.76 93.3489 1806.93 92.7042C1806 91.9781 1805.84 90.6341 1806.56 89.7024Z" fill="#FFE4C0"/>
<path d="M1783.7 104.412C1784.3 103.362 1785.03 102.341 1785.86 101.377C1786.63 100.483 1787.98 100.383 1788.88 101.155C1789.77 101.926 1789.87 103.276 1789.1 104.171C1788.45 104.928 1787.88 105.724 1787.41 106.537C1786.83 107.549 1785.51 107.909 1784.49 107.33C1783.47 106.743 1783.11 105.437 1783.7 104.412Z" fill="#FFE4C0"/>
<path d="M1800.58 130.546C1800.54 129.365 1801.46 128.375 1802.64 128.333C1803.55 128.3 1804.49 128.195 1805.43 128.019L1805.59 127.988C1806.75 127.756 1807.88 128.508 1808.11 129.666C1808.33 130.789 1807.63 131.882 1806.53 132.158C1806.5 132.167 1806.46 132.175 1806.43 132.182L1806.22 132.223C1805.07 132.439 1803.92 132.568 1802.79 132.608C1801.61 132.649 1800.62 131.726 1800.58 130.546Z" fill="#FFE4C0"/>
<path d="M1781.74 115.436C1781.52 114.155 1781.44 112.882 1781.51 111.652C1781.58 110.473 1782.59 109.569 1783.77 109.635C1784.95 109.701 1785.85 110.71 1785.78 111.889C1785.73 112.8 1785.79 113.752 1785.96 114.718C1786.15 115.867 1785.36 116.99 1784.21 117.186C1783.06 117.381 1781.93 116.585 1781.74 115.436Z" fill="#FFE4C0"/>
<path d="M1785.06 119.425C1786.08 118.824 1787.39 119.161 1787.99 120.178C1788.49 121.025 1789.07 121.834 1789.71 122.583C1790.47 123.483 1790.36 124.833 1789.46 125.597C1788.57 126.352 1787.2 126.239 1786.45 125.351C1785.65 124.417 1784.94 123.409 1784.31 122.354C1783.71 121.337 1784.05 120.026 1785.06 119.425Z" fill="#FFE4C0"/>
<path d="M1788.17 82.4695C1788.4 81.3098 1789.52 80.5534 1790.68 80.7795C1791.82 81.0012 1792.96 81.2682 1794.07 81.5731C1794.95 81.8163 1795.6 82.626 1795.64 83.5441C1795.68 84.5463 1794.99 85.4652 1794.02 85.71C1793.68 85.7971 1793.3 85.7987 1792.94 85.6975C1791.93 85.4211 1790.9 85.1788 1789.86 84.9776C1788.7 84.7516 1787.95 83.6286 1788.17 82.4695Z" fill="#FFE4C0"/>
<path d="M1791.3 127.134C1791.88 126.105 1793.18 125.74 1794.21 126.32C1795.06 126.798 1795.95 127.198 1796.87 127.509C1797.99 127.888 1798.59 129.102 1798.21 130.22C1797.84 131.324 1796.6 131.934 1795.5 131.56C1794.33 131.164 1793.19 130.655 1792.11 130.046C1791.08 129.467 1790.72 128.163 1791.3 127.134Z" fill="#FFE4C0"/>
<path d="M1779.81 81.9976C1779.83 80.8171 1780.8 79.8741 1781.98 79.8903C1782.58 79.899 1783.18 79.918 1783.77 79.9466C1784.88 80.0018 1785.79 80.948 1785.8 82.0678C1785.81 83.2796 1784.77 84.2776 1783.56 84.2185C1783.02 84.1919 1782.47 84.1746 1781.92 84.1666C1780.74 84.1496 1779.8 83.1785 1779.81 81.9976Z" fill="#FFE4C0"/>
<path d="M1844.14 140.631C1844.27 140.105 1844.38 139.57 1844.48 139.042C1844.7 137.882 1845.82 137.122 1846.98 137.345C1848.14 137.567 1848.9 138.688 1848.68 139.848C1848.57 140.433 1848.44 141.024 1848.31 141.605C1848.04 142.74 1846.87 143.466 1845.74 143.201C1844.59 142.932 1843.87 141.782 1844.14 140.631Z" fill="#FFE4C0"/>
<path d="M1845.15 133.021C1845.18 132.012 1845.17 130.996 1845.12 129.998C1845.05 128.819 1845.96 127.812 1847.14 127.748C1848.32 127.684 1849.32 128.589 1849.39 129.768C1849.45 130.885 1849.46 132.022 1849.43 133.15C1849.39 134.314 1848.39 135.258 1847.23 135.222C1846.04 135.187 1845.12 134.201 1845.15 133.021Z" fill="#FFE4C0"/>
<path d="M1844.87 118.423C1845.99 118.065 1847.19 118.682 1847.55 119.806C1847.81 120.606 1848.05 121.424 1848.25 122.237C1848.44 122.982 1848.65 123.701 1848.31 124.437C1848.04 125.035 1847.49 125.487 1846.84 125.631C1846.21 125.777 1845.52 125.618 1845.02 125.206C1844.4 124.707 1844.29 124.009 1844.1 123.28C1843.92 122.556 1843.71 121.826 1843.48 121.112C1843.12 119.988 1843.74 118.784 1844.87 118.423Z" fill="#FFE4C0"/>
<path d="M1840.34 109.958C1841.34 109.331 1842.66 109.636 1843.29 110.637C1843.88 111.59 1844.44 112.577 1844.96 113.57C1845.5 114.618 1845.09 115.909 1844.04 116.452C1843.01 116.987 1841.7 116.57 1841.16 115.535C1840.7 114.645 1840.19 113.761 1839.66 112.906C1839.03 111.904 1839.34 110.584 1840.34 109.958Z" fill="#FFE4C0"/>
<path d="M1825.95 97.4776C1826.53 96.4497 1827.84 96.0885 1828.87 96.6703C1829.13 96.8191 1829.39 96.972 1829.65 97.1282C1830.35 97.5476 1831.06 98.0007 1831.74 98.4753C1832.71 99.1477 1832.95 100.48 1832.28 101.451C1831.62 102.409 1830.26 102.655 1829.31 101.991C1828.7 101.571 1828.08 101.17 1827.46 100.8C1827.23 100.661 1826.99 100.525 1826.76 100.392C1825.73 99.81 1825.37 98.5052 1825.95 97.4776Z" fill="#FFE4C0"/>
<path d="M1833.92 102.816C1834.75 101.971 1836.1 101.954 1836.95 102.778C1837.75 103.558 1838.53 104.383 1839.27 105.227C1840.05 106.116 1839.95 107.467 1839.06 108.244C1838.19 109.012 1836.81 108.918 1836.05 108.041C1835.38 107.282 1834.68 106.541 1833.96 105.84C1833.12 105.015 1833.1 103.661 1833.92 102.816Z" fill="#FFE4C0"/>
<path d="M1818.31 94.7305C1818.65 93.5997 1819.84 92.9582 1820.97 93.2978C1821.55 93.4705 1822.13 93.6596 1822.7 93.8597C1823.81 94.2531 1824.39 95.4743 1824 96.588C1823.61 97.6865 1822.37 98.2809 1821.27 97.8932C1820.77 97.7155 1820.26 97.5474 1819.74 97.394C1818.61 97.0541 1817.97 95.8616 1818.31 94.7305Z" fill="#FFE4C0"/>
</g>
<path d="M110.11 122.13L112.93 123.35L124.2 115.49L127.2 117.15C129.61 118.59 131.95 118.69 133.07 118.05L133.3 118.16C135.04 118.92 136.07 118.24 136.42 117.42C136.77 116.6 136.57 115.42 134.83 114.64L134.6 114.54C134.39 113.54 133.48 111.86 129.93 110.87L126.66 109.82L124.66 96.23L121.84 95L119.65 107.59L111.59 104.83L110.37 101.6L108.13 100.77L107.97 103.77L107.17 103.7L106.44 105.37L107.04 105.96L104.92 108.16L107.06 109.23L110.24 107.91L117.77 111.91L110.11 122.13ZM110.32 107.18L107.12 108.51L106.12 107.99L108.06 105.99L107.33 105.25L107.67 104.46L108.67 104.55L108.82 101.75L109.91 102.15L111.13 105.39L120.25 108.5L122.42 95.99L124.11 96.72L126.06 110.36L129.75 111.54C133.19 112.49 133.87 114.03 133.97 114.86V115.07L134.17 115.14C134.297 115.176 134.421 115.223 134.54 115.28C135.61 115.74 136.09 116.47 135.78 117.17C135.47 117.87 134.62 118.03 133.55 117.56C133.43 117.511 133.313 117.455 133.2 117.39L133.01 117.28L132.83 117.41C132.1 117.95 129.97 118.05 127.51 116.59L124.15 114.71L112.85 122.6L111.16 121.87L118.82 111.73L110.32 107.18Z" fill="#999999"/>
<path d="M13.3302 206.06C13.276 206.06 13.2225 206.047 13.1751 206.021C13.1278 205.994 13.0881 205.956 13.0602 205.91C12.7002 205.363 12.3668 204.813 12.0602 204.26C12.0148 204.186 11.9999 204.098 12.0186 204.014C12.0373 203.93 12.0881 203.857 12.1602 203.81C12.2346 203.765 12.3235 203.752 12.4077 203.772C12.492 203.793 12.5647 203.846 12.6102 203.92C12.9502 204.47 13.2902 205.01 13.6102 205.56C13.6344 205.595 13.6513 205.635 13.6599 205.676C13.6685 205.718 13.6686 205.762 13.6603 205.804C13.6519 205.845 13.6351 205.885 13.6111 205.921C13.587 205.956 13.5561 205.986 13.5202 206.01C13.4618 206.041 13.3966 206.059 13.3302 206.06ZM11.3302 202.74C11.2737 202.739 11.2183 202.724 11.1693 202.696C11.1203 202.668 11.0793 202.628 11.0502 202.58C10.7302 202.01 10.4102 201.44 10.0502 200.87C10.0097 200.795 9.99959 200.707 10.0219 200.625C10.0443 200.544 10.0974 200.473 10.1702 200.43C10.2461 200.39 10.3344 200.381 10.4165 200.406C10.4986 200.43 10.568 200.485 10.6102 200.56C10.9202 201.13 11.2402 201.69 11.5602 202.25C11.6046 202.324 11.618 202.413 11.5974 202.497C11.5768 202.581 11.5239 202.654 11.4502 202.7C11.3981 202.728 11.3394 202.742 11.2802 202.74H11.3302ZM9.47019 199.32C9.41003 199.319 9.3512 199.302 9.30008 199.27C9.24897 199.238 9.20749 199.193 9.18015 199.14C8.88015 198.56 8.59015 197.97 8.31015 197.39C8.29149 197.351 8.2806 197.31 8.27805 197.268C8.2755 197.226 8.28137 197.183 8.29532 197.143C8.30928 197.103 8.33105 197.066 8.35935 197.035C8.38765 197.003 8.42191 196.978 8.46018 196.96C8.49821 196.941 8.53959 196.93 8.58188 196.927C8.62417 196.925 8.66652 196.931 8.70652 196.945C8.74652 196.959 8.78333 196.98 8.81485 197.009C8.84638 197.037 8.872 197.071 8.89017 197.11C9.17017 197.69 9.46017 198.27 9.76017 198.85C9.77883 198.888 9.78978 198.929 9.79233 198.971C9.79488 199.013 9.78901 199.056 9.77506 199.096C9.7611 199.136 9.73933 199.173 9.71103 199.204C9.68273 199.236 9.64847 199.261 9.6102 199.28C9.58337 199.3 9.55245 199.314 9.51963 199.321C9.4868 199.327 9.45287 199.327 9.4202 199.32H9.47019ZM7.78019 195.8C7.71753 195.799 7.65637 195.78 7.60343 195.747C7.55049 195.713 7.50784 195.666 7.4802 195.61L6.70017 193.82C6.66712 193.739 6.66752 193.648 6.70127 193.567C6.73501 193.487 6.79934 193.423 6.88016 193.39C6.95987 193.36 7.0481 193.362 7.12638 193.395C7.20465 193.429 7.26695 193.491 7.30021 193.57C7.55021 194.16 7.81016 194.75 8.07016 195.35C8.08833 195.387 8.09863 195.429 8.10038 195.471C8.10212 195.513 8.09526 195.555 8.0803 195.594C8.06533 195.633 8.04253 195.669 8.01328 195.699C7.98403 195.729 7.94898 195.753 7.91019 195.77C7.85456 195.797 7.79185 195.808 7.7302 195.8H7.78019ZM6.27018 192.21C6.20616 192.209 6.14369 192.19 6.09043 192.154C6.03716 192.119 5.9954 192.068 5.97019 192.01C5.73019 191.39 5.50018 190.78 5.27018 190.17C5.25603 190.129 5.24999 190.087 5.25241 190.045C5.25484 190.002 5.26566 189.961 5.28428 189.923C5.30289 189.884 5.3289 189.85 5.36081 189.822C5.39273 189.794 5.42993 189.773 5.47019 189.76C5.54988 189.733 5.63663 189.738 5.7128 189.773C5.78898 189.809 5.84881 189.872 5.88016 189.95C6.10016 190.56 6.33016 191.16 6.57016 191.77C6.60015 191.849 6.59816 191.937 6.56461 192.016C6.53106 192.094 6.46857 192.156 6.39017 192.19L6.27018 192.21ZM4.93015 188.55C4.86345 188.549 4.7987 188.527 4.74491 188.488C4.69112 188.448 4.651 188.393 4.63016 188.33C4.41016 187.71 4.21018 187.09 4.02018 186.47C3.99481 186.387 4.00255 186.298 4.04178 186.222C4.08101 186.145 4.14865 186.087 4.2302 186.06C4.31243 186.034 4.40129 186.042 4.47788 186.081C4.55447 186.12 4.6127 186.188 4.64017 186.27C4.83017 186.89 5.03015 187.5 5.24015 188.12C5.26551 188.202 5.25777 188.291 5.21854 188.367C5.17931 188.444 5.11174 188.502 5.03019 188.53L4.93015 188.55ZM3.77018 184.83C3.69964 184.828 3.63145 184.804 3.57566 184.761C3.51986 184.717 3.4794 184.657 3.46018 184.59C3.28018 183.96 3.10016 183.33 2.94016 182.71C2.91863 182.626 2.93068 182.537 2.97367 182.463C3.01665 182.388 3.0872 182.333 3.1702 182.31C3.21091 182.299 3.25326 182.297 3.2949 182.302C3.33653 182.308 3.3766 182.322 3.41282 182.344C3.44903 182.365 3.48074 182.393 3.50602 182.427C3.5313 182.461 3.54967 182.499 3.56015 182.54C3.73015 183.16 3.90017 183.79 4.08017 184.41C4.09238 184.45 4.09638 184.493 4.09189 184.535C4.08741 184.577 4.07453 184.618 4.05405 184.656C4.03357 184.693 4.00586 184.726 3.97257 184.752C3.93928 184.779 3.90112 184.798 3.8602 184.81L3.77018 184.83ZM2.77018 181.06C2.69833 181.057 2.62917 181.032 2.57322 180.987C2.51726 180.941 2.47757 180.879 2.46018 180.81C2.31018 180.17 2.16019 179.53 2.03019 178.9C2.01988 178.859 2.01796 178.816 2.02457 178.775C2.03118 178.733 2.04619 178.694 2.06864 178.658C2.09109 178.622 2.12054 178.592 2.15519 178.568C2.18984 178.544 2.22894 178.528 2.27018 178.52C2.31156 178.509 2.35459 178.507 2.39676 178.514C2.43893 178.52 2.47938 178.535 2.51572 178.557C2.55206 178.58 2.58356 178.609 2.60837 178.644C2.63318 178.679 2.65081 178.718 2.66019 178.76C2.79019 179.39 2.94018 180.02 3.09018 180.66C3.10841 180.743 3.09356 180.83 3.0488 180.903C3.00405 180.976 2.93289 181.028 2.85019 181.05L2.77018 181.06ZM1.95017 177.24C1.87474 177.241 1.80126 177.216 1.74271 177.168C1.68416 177.12 1.64429 177.054 1.63016 176.98C1.51016 176.34 1.39019 175.7 1.28019 175.06C1.26566 174.976 1.2849 174.89 1.33365 174.821C1.3824 174.751 1.45668 174.704 1.5402 174.69C1.58228 174.681 1.62569 174.681 1.66782 174.689C1.70995 174.698 1.74991 174.715 1.78537 174.739C1.82084 174.763 1.85102 174.794 1.87418 174.83C1.89734 174.867 1.91303 174.907 1.9202 174.95C2.0302 175.58 2.14018 176.22 2.27018 176.86C2.27884 176.902 2.27896 176.945 2.27048 176.987C2.262 177.029 2.24512 177.069 2.22086 177.105C2.19659 177.14 2.16544 177.17 2.12925 177.194C2.09305 177.217 2.05253 177.232 2.01017 177.24H1.95017ZM1.2902 173.4C1.21276 173.403 1.13696 173.377 1.07773 173.327C1.0185 173.277 0.980124 173.206 0.970188 173.13C0.870188 172.48 0.780169 171.83 0.700169 171.19C0.694575 171.147 0.697437 171.105 0.70853 171.064C0.719624 171.023 0.738747 170.984 0.764805 170.951C0.790863 170.917 0.823287 170.889 0.860264 170.869C0.897241 170.848 0.938042 170.834 0.980198 170.83C1.02247 170.822 1.06572 170.824 1.10727 170.835C1.14882 170.845 1.18776 170.864 1.22159 170.891C1.25542 170.917 1.28339 170.95 1.30381 170.988C1.32422 171.025 1.33662 171.067 1.34018 171.11C1.42018 171.736 1.5102 172.376 1.6102 173.03C1.62184 173.114 1.60019 173.2 1.54984 173.269C1.49949 173.338 1.42433 173.385 1.34018 173.4H1.2902ZM0.800205 169.53C0.719627 169.532 0.641136 169.504 0.581394 169.449C0.521652 169.395 0.485352 169.32 0.480198 169.24C0.410198 168.59 0.340195 167.94 0.290195 167.3C0.284635 167.214 0.312878 167.129 0.368931 167.063C0.424984 166.998 0.504393 166.957 0.590183 166.95C0.631972 166.944 0.674486 166.947 0.714939 166.959C0.755392 166.971 0.792843 166.991 0.824924 167.019C0.857006 167.046 0.882965 167.08 0.901096 167.118C0.919228 167.156 0.929122 167.197 0.930149 167.24C0.990149 167.88 1.05015 168.53 1.12015 169.18C1.12428 169.222 1.12007 169.264 1.1077 169.304C1.09533 169.345 1.07509 169.382 1.04813 169.415C1.02117 169.448 0.988002 169.474 0.950596 169.494C0.91319 169.514 0.872266 169.526 0.830173 169.53H0.800205ZM0.470188 165.65C0.388673 165.65 0.310174 165.619 0.250706 165.563C0.191237 165.507 0.155275 165.431 0.150181 165.35C0.150181 164.68 0.0702052 164.03 0.0502052 163.35C0.0475036 163.307 0.0534192 163.264 0.0676612 163.223C0.0819033 163.183 0.104166 163.146 0.133091 163.114C0.162016 163.082 0.197042 163.056 0.236057 163.039C0.275073 163.021 0.317291 163.011 0.360203 163.01C0.444147 163.013 0.524058 163.047 0.586155 163.103C0.648252 163.16 0.688586 163.236 0.700169 163.32C0.700169 163.96 0.700195 164.61 0.790195 165.26C0.795756 165.345 0.767452 165.43 0.711399 165.496C0.655346 165.561 0.575937 165.602 0.490147 165.61L0.470188 165.65ZM0.320164 161.75C0.235294 161.75 0.153918 161.716 0.0939064 161.656C0.0338947 161.596 0.000156366 161.514 0.000156366 161.43C0.000156366 160.97 0.000156366 160.52 0.000156366 160.07V159.48C0.000156366 159.395 0.0338947 159.313 0.0939064 159.253C0.153918 159.193 0.235294 159.16 0.320164 159.16C0.405033 159.16 0.486409 159.193 0.546421 159.253C0.606433 159.313 0.640171 159.395 0.640171 159.48V160.07C0.640171 160.52 0.640171 160.97 0.640171 161.42C0.641511 161.462 0.634228 161.505 0.618748 161.545C0.603267 161.585 0.579932 161.622 0.550083 161.652C0.520234 161.683 0.484471 161.708 0.444981 161.724C0.40549 161.741 0.363042 161.75 0.320164 161.75ZM0.320164 157.85C0.277286 157.85 0.234837 157.841 0.195347 157.824C0.155856 157.808 0.120155 157.783 0.0903053 157.752C0.060456 157.722 0.0370602 157.685 0.0215797 157.645C0.0060992 157.605 -0.00118357 157.562 0.000156366 157.52C0.000156366 156.85 0.0601832 156.2 0.0901832 155.52C0.0978336 155.434 0.13874 155.354 0.204136 155.298C0.269531 155.242 0.354208 155.214 0.440159 155.22C0.48221 155.222 0.523333 155.233 0.561191 155.251C0.59905 155.27 0.632928 155.296 0.660801 155.327C0.688674 155.359 0.710043 155.396 0.723667 155.435C0.737291 155.475 0.742857 155.517 0.740147 155.56C0.740147 156.19 0.670181 156.84 0.650181 157.5C0.654851 157.547 0.649029 157.594 0.633091 157.639C0.617153 157.683 0.591499 157.724 0.558018 157.757C0.524537 157.791 0.484013 157.816 0.439426 157.832C0.39484 157.848 0.347324 157.854 0.300205 157.85H0.320164ZM0.550205 153.96C0.508113 153.956 0.467128 153.944 0.429722 153.924C0.392316 153.904 0.359211 153.878 0.332249 153.845C0.305286 153.812 0.285047 153.775 0.272678 153.734C0.26031 153.694 0.256037 153.652 0.260166 153.61C0.320166 152.943 0.390188 152.276 0.470188 151.61C0.47375 151.567 0.48609 151.525 0.506504 151.488C0.526918 151.45 0.55495 151.417 0.588779 151.391C0.622609 151.364 0.661549 151.345 0.703098 151.335C0.744647 151.324 0.787902 151.322 0.830173 151.33C0.91421 151.342 0.990238 151.386 1.04239 151.453C1.09455 151.52 1.11884 151.605 1.1102 151.69C1.0302 152.3 0.960181 152.95 0.900181 153.62C0.904174 153.669 0.896707 153.718 0.878391 153.764C0.860075 153.81 0.831393 153.851 0.79459 153.884C0.757787 153.917 0.713841 153.941 0.666233 153.954C0.618625 153.967 0.568653 153.969 0.520176 153.96H0.550205ZM1.03019 150.09C0.946672 150.075 0.872391 150.028 0.823643 149.958C0.774894 149.889 0.755653 149.803 0.770176 149.72L0.830173 149.33C0.920173 148.82 1.02015 148.33 1.12015 147.79C1.12849 147.748 1.14501 147.709 1.16867 147.674C1.19234 147.639 1.22269 147.609 1.25803 147.585C1.29337 147.562 1.33298 147.546 1.37455 147.538C1.41611 147.53 1.45877 147.531 1.50016 147.54C1.54228 147.547 1.58253 147.562 1.61832 147.586C1.65411 147.609 1.68469 147.639 1.70816 147.675C1.73164 147.711 1.74751 147.751 1.75473 147.793C1.76196 147.835 1.76038 147.878 1.75016 147.92C1.65016 148.43 1.56019 148.92 1.47019 149.44L1.40018 149.82C1.39593 149.865 1.38187 149.908 1.35904 149.947C1.33621 149.986 1.30513 150.02 1.26798 150.045C1.23083 150.071 1.18849 150.088 1.14396 150.096C1.09942 150.104 1.05377 150.101 1.01017 150.09H1.03019ZM1.80021 146.27H1.7302C1.68897 146.261 1.6498 146.245 1.61515 146.221C1.5805 146.197 1.55105 146.167 1.5286 146.131C1.50615 146.095 1.4912 146.056 1.48459 146.014C1.47798 145.973 1.47984 145.93 1.49015 145.89C1.64015 145.25 1.79018 144.62 1.96018 143.98C1.97167 143.939 1.99119 143.9 2.01761 143.867C2.04403 143.834 2.07681 143.806 2.11405 143.786C2.15128 143.765 2.19221 143.752 2.23447 143.748C2.27673 143.743 2.3195 143.747 2.3602 143.76C2.40092 143.77 2.43915 143.788 2.47275 143.814C2.50635 143.839 2.53464 143.871 2.556 143.907C2.57736 143.943 2.5914 143.983 2.59726 144.025C2.60313 144.066 2.60071 144.109 2.59018 144.15C2.42018 144.78 2.26015 145.4 2.12015 146.03C2.09966 146.102 2.05469 146.166 1.99277 146.21C1.93086 146.254 1.8558 146.275 1.78019 146.27H1.80021ZM2.80021 142.51H2.71018C2.66926 142.498 2.63104 142.479 2.59775 142.452C2.56446 142.426 2.53681 142.393 2.51633 142.356C2.49585 142.318 2.48297 142.277 2.47849 142.235C2.474 142.193 2.47794 142.15 2.49015 142.11C2.68015 141.48 2.88018 140.86 3.09018 140.24C3.10368 140.199 3.12505 140.162 3.15305 140.13C3.18105 140.098 3.21511 140.072 3.25327 140.054C3.29143 140.035 3.33295 140.024 3.37534 140.022C3.41773 140.019 3.46012 140.025 3.50016 140.04C3.54041 140.053 3.57762 140.074 3.60953 140.102C3.64144 140.13 3.66746 140.164 3.68607 140.203C3.70468 140.241 3.71551 140.282 3.71793 140.325C3.72035 140.367 3.71431 140.409 3.70017 140.45C3.49017 141.06 3.3002 141.68 3.1102 142.3C3.08662 142.364 3.04268 142.42 2.98502 142.458C2.92736 142.495 2.85904 142.514 2.7902 142.51H2.80021ZM4.05021 138.81C4.01413 138.819 3.97623 138.819 3.94016 138.81C3.86067 138.78 3.79603 138.721 3.76041 138.644C3.72479 138.567 3.72111 138.479 3.75016 138.4C3.98016 137.79 4.2202 137.18 4.4802 136.58C4.49561 136.54 4.51874 136.504 4.54831 136.473C4.57788 136.443 4.61327 136.418 4.65238 136.401C4.69149 136.385 4.73355 136.376 4.7761 136.375C4.81864 136.375 4.86083 136.383 4.90018 136.4C4.93895 136.416 4.9741 136.44 5.00364 136.47C5.03317 136.5 5.05651 136.535 5.0723 136.574C5.08809 136.613 5.09604 136.655 5.09568 136.697C5.09531 136.739 5.08663 136.781 5.07016 136.82C4.82016 137.42 4.5802 138.02 4.3602 138.63C4.33069 138.688 4.28448 138.736 4.22751 138.768C4.17054 138.8 4.10536 138.815 4.0402 138.81H4.05021ZM5.52018 135.27C5.47399 135.279 5.42635 135.279 5.38016 135.27C5.30293 135.233 5.24308 135.167 5.21323 135.087C5.18338 135.007 5.18587 134.918 5.22019 134.84C5.50019 134.25 5.78017 133.66 6.08017 133.07C6.12055 132.996 6.18752 132.94 6.26743 132.914C6.34733 132.888 6.43414 132.894 6.51017 132.93C6.58816 132.968 6.64772 133.036 6.67582 133.119C6.70391 133.201 6.6983 133.291 6.66019 133.37C6.36019 133.94 6.08015 134.52 5.81015 135.11C5.78189 135.161 5.73966 135.203 5.68833 135.232C5.637 135.26 5.5787 135.273 5.52018 135.27ZM7.28019 131.79C7.23112 131.803 7.17923 131.803 7.13016 131.79C7.09231 131.77 7.05884 131.742 7.03171 131.709C7.00459 131.676 6.98438 131.638 6.97226 131.597C6.96014 131.556 6.95636 131.513 6.96115 131.47C6.96595 131.428 6.9792 131.387 7.00016 131.35C7.32016 130.78 7.65016 130.21 8.00016 129.66C8.02075 129.622 8.04882 129.59 8.08255 129.564C8.11629 129.538 8.15499 129.519 8.19626 129.509C8.23754 129.499 8.28046 129.497 8.32242 129.504C8.36439 129.511 8.40447 129.526 8.44016 129.55C8.47634 129.571 8.50793 129.6 8.53305 129.633C8.55818 129.667 8.57636 129.706 8.58658 129.747C8.5968 129.788 8.59887 129.83 8.59262 129.872C8.58638 129.913 8.57197 129.953 8.55021 129.99C8.21021 130.54 7.89021 131.1 7.55021 131.67C7.51725 131.697 7.47885 131.718 7.43753 131.73C7.39621 131.742 7.35283 131.745 7.31015 131.74L7.28019 131.79ZM9.28019 128.46C9.22151 128.477 9.15887 128.477 9.10019 128.46C9.06426 128.436 9.03331 128.406 9.00925 128.371C8.98519 128.335 8.96851 128.295 8.96012 128.254C8.95173 128.212 8.95182 128.168 8.96042 128.126C8.96902 128.085 8.98593 128.045 9.01017 128.01C9.38017 127.47 9.75017 126.93 10.1402 126.4C10.1918 126.332 10.2674 126.287 10.3512 126.274C10.435 126.261 10.5205 126.281 10.5902 126.33C10.6574 126.381 10.7022 126.457 10.7152 126.541C10.7283 126.624 10.7086 126.71 10.6602 126.78C10.2802 127.3 9.9102 127.83 9.55021 128.37C9.48686 128.407 9.4127 128.421 9.34018 128.41L9.28019 128.46ZM53.2802 126.25H52.8702C52.8281 126.247 52.787 126.236 52.7491 126.218C52.7113 126.199 52.6774 126.173 52.6496 126.142C52.6217 126.11 52.6003 126.073 52.5867 126.034C52.5731 125.994 52.5675 125.952 52.5702 125.91C52.5713 125.867 52.5813 125.825 52.5993 125.787C52.6173 125.748 52.6431 125.714 52.675 125.686C52.7069 125.657 52.7442 125.636 52.7846 125.623C52.8251 125.61 52.8679 125.605 52.9102 125.61C53.2927 125.645 53.6776 125.645 54.0602 125.61C54.2894 125.581 54.5165 125.537 54.7401 125.48C54.8237 125.458 54.9123 125.47 54.987 125.513C55.0618 125.556 55.1168 125.627 55.1402 125.71C55.1506 125.751 55.1525 125.794 55.146 125.836C55.1395 125.878 55.1247 125.919 55.1023 125.955C55.08 125.991 55.0506 126.023 55.0158 126.048C54.9811 126.073 54.9418 126.09 54.9002 126.1C54.6478 126.17 54.3904 126.22 54.1302 126.25C53.8828 126.245 53.6359 126.228 53.3902 126.2L53.2802 126.25ZM50.9802 125.86H50.8802C50.2305 125.631 49.6251 125.293 49.0902 124.86C49.0303 124.798 48.9968 124.715 48.9968 124.63C48.9968 124.544 49.0303 124.461 49.0902 124.4C49.12 124.369 49.1558 124.344 49.1953 124.327C49.2348 124.311 49.2772 124.302 49.3202 124.302C49.3631 124.302 49.4056 124.311 49.4451 124.327C49.4846 124.344 49.5204 124.369 49.5502 124.4C50.028 124.781 50.5651 125.082 51.1402 125.29C51.1804 125.303 51.2176 125.324 51.2495 125.352C51.2814 125.38 51.3075 125.414 51.3261 125.453C51.3447 125.491 51.3555 125.532 51.3579 125.575C51.3604 125.617 51.3543 125.659 51.3402 125.7C51.3088 125.735 51.2702 125.763 51.2271 125.782C51.184 125.801 51.1373 125.81 51.0902 125.81L50.9802 125.86ZM11.5302 125.32C11.4574 125.32 11.3865 125.296 11.3302 125.25C11.2703 125.188 11.2368 125.105 11.2368 125.02C11.2368 124.934 11.2703 124.851 11.3302 124.79C11.7402 124.28 12.1702 123.79 12.5902 123.29C12.6518 123.23 12.7343 123.196 12.8202 123.196C12.9061 123.196 12.9886 123.23 13.0502 123.29C13.1101 123.351 13.1435 123.434 13.1435 123.52C13.1435 123.605 13.1101 123.688 13.0502 123.75C12.6302 124.23 12.2102 124.75 11.8102 125.23C11.7579 125.257 11.6994 125.271 11.6402 125.27L11.5302 125.32ZM56.5902 125.27C56.5375 125.268 56.4859 125.255 56.4392 125.23C56.3924 125.206 56.3517 125.172 56.3202 125.13C56.2748 125.056 56.2599 124.968 56.2786 124.884C56.2973 124.8 56.3481 124.727 56.4202 124.68C56.936 124.337 57.4035 123.927 57.8102 123.46C57.8701 123.4 57.9509 123.367 58.0352 123.367C58.1194 123.367 58.2003 123.4 58.2602 123.46C58.32 123.521 58.3535 123.604 58.3535 123.69C58.3535 123.775 58.32 123.858 58.2602 123.92C57.8166 124.437 57.3014 124.888 56.7302 125.26C56.7204 125.263 56.7104 125.267 56.7002 125.27H56.5902ZM48.0602 123.42C48.0027 123.418 47.9467 123.402 47.8976 123.372C47.8485 123.342 47.808 123.3 47.7802 123.25C47.45 122.627 47.2365 121.949 47.1502 121.25C47.1446 121.207 47.1474 121.165 47.1585 121.124C47.1696 121.083 47.1888 121.044 47.2148 121.011C47.2409 120.977 47.2733 120.949 47.3103 120.929C47.3473 120.908 47.388 120.894 47.4301 120.89C47.5136 120.878 47.5982 120.9 47.6656 120.951C47.733 121.001 47.7778 121.076 47.7902 121.16C47.8731 121.767 48.0591 122.355 48.3402 122.9C48.3611 122.937 48.3744 122.978 48.3792 123.02C48.384 123.063 48.3802 123.106 48.3681 123.147C48.356 123.188 48.3358 123.226 48.3086 123.259C48.2815 123.292 48.248 123.32 48.2102 123.34C48.1975 123.35 48.1841 123.36 48.1702 123.37L48.0602 123.42ZM14.1102 122.42C14.0248 122.42 13.9423 122.388 13.8802 122.33C13.8203 122.268 13.7868 122.185 13.7868 122.1C13.7868 122.014 13.8203 121.931 13.8802 121.87C14.3402 121.4 14.8102 120.94 15.2802 120.49C15.3418 120.43 15.4243 120.396 15.5102 120.396C15.5961 120.396 15.6786 120.43 15.7401 120.49C15.7994 120.549 15.8326 120.63 15.8326 120.715C15.8326 120.799 15.7994 120.88 15.7401 120.94C15.2801 121.38 14.8202 121.84 14.3702 122.3C14.3245 122.326 14.2728 122.34 14.2202 122.34L14.1102 122.42ZM59.1102 122.42C59.0606 122.429 59.0097 122.429 58.9602 122.42C58.8857 122.377 58.83 122.309 58.8041 122.227C58.7781 122.145 58.7838 122.057 58.8202 121.98C59.1018 121.423 59.3069 120.831 59.4301 120.22C59.4395 120.178 59.4572 120.139 59.482 120.104C59.5068 120.069 59.5383 120.04 59.5746 120.017C59.611 119.995 59.6514 119.98 59.6936 119.974C59.7357 119.967 59.7788 119.969 59.8202 119.98C59.8616 119.988 59.9011 120.004 59.9361 120.028C59.9712 120.052 60.0012 120.082 60.0244 120.117C60.0477 120.153 60.0637 120.192 60.0716 120.234C60.0794 120.275 60.0789 120.318 60.0702 120.36C59.9251 121.021 59.7001 121.662 59.4002 122.27C59.352 122.3 59.2969 122.317 59.2401 122.32L59.1102 122.42ZM16.9202 119.77C16.8747 119.769 16.8297 119.759 16.7883 119.74C16.7469 119.721 16.71 119.694 16.6801 119.66C16.6203 119.598 16.5868 119.515 16.5868 119.43C16.5868 119.344 16.6203 119.261 16.6801 119.2L17.2802 118.7L18.2102 117.97C18.2793 117.917 18.3664 117.894 18.4525 117.905C18.5386 117.916 18.6168 117.961 18.6702 118.03C18.7197 118.098 18.741 118.183 18.7298 118.266C18.7187 118.35 18.6759 118.426 18.6102 118.48L17.6902 119.2L17.1002 119.7C17.0826 119.691 17.0659 119.681 17.0502 119.67L16.9202 119.77ZM47.4402 119.68C47.3543 119.669 47.2758 119.626 47.2216 119.559C47.1674 119.491 47.1417 119.406 47.1502 119.32C47.2265 118.641 47.3671 117.971 47.5702 117.32C47.5817 117.279 47.6012 117.24 47.6276 117.207C47.654 117.174 47.6868 117.146 47.724 117.126C47.7613 117.105 47.8022 117.092 47.8445 117.088C47.8867 117.083 47.9295 117.087 47.9702 117.1C48.011 117.111 48.049 117.13 48.0819 117.157C48.1149 117.184 48.142 117.217 48.1617 117.254C48.1813 117.292 48.1931 117.333 48.1963 117.375C48.1995 117.417 48.194 117.46 48.1801 117.5C47.9989 118.104 47.8685 118.723 47.7902 119.35C47.7768 119.404 47.7494 119.453 47.7108 119.494C47.6722 119.534 47.6237 119.564 47.5702 119.58L47.4402 119.68ZM59.8902 118.68C59.8087 118.68 59.7302 118.649 59.6707 118.593C59.6112 118.537 59.5753 118.461 59.5702 118.38C59.5241 117.765 59.3824 117.161 59.1502 116.59C59.1337 116.551 59.125 116.509 59.1247 116.467C59.1243 116.425 59.1323 116.383 59.148 116.344C59.1638 116.305 59.1872 116.27 59.2167 116.24C59.2462 116.21 59.2814 116.186 59.3202 116.17C59.3589 116.153 59.4005 116.144 59.4426 116.144C59.4847 116.144 59.5265 116.152 59.5655 116.167C59.6045 116.183 59.64 116.207 59.67 116.236C59.6999 116.266 59.7238 116.301 59.7401 116.34C60.0052 116.976 60.164 117.652 60.2102 118.34C60.2143 118.382 60.2097 118.426 60.1968 118.467C60.1838 118.508 60.1626 118.546 60.1346 118.578C60.1066 118.611 60.0723 118.638 60.0337 118.657C59.9952 118.676 59.9532 118.687 59.9102 118.69L59.8902 118.68ZM20.1502 117.27C20.0971 117.27 20.0446 117.258 19.9975 117.234C19.9503 117.209 19.91 117.173 19.8802 117.13C19.8328 117.059 19.8148 116.972 19.8297 116.888C19.8446 116.805 19.8913 116.73 19.9602 116.68C20.5002 116.31 21.0602 115.95 21.6102 115.61C21.6846 115.565 21.7735 115.552 21.8577 115.572C21.9419 115.593 22.0146 115.646 22.0602 115.72C22.0819 115.756 22.0963 115.796 22.1026 115.837C22.1088 115.879 22.1068 115.921 22.0966 115.962C22.0864 116.003 22.0682 116.042 22.0431 116.076C22.0179 116.109 21.9864 116.138 21.9502 116.16C21.4035 116.5 20.8635 116.85 20.3302 117.21C20.2776 117.247 20.2149 117.268 20.1502 117.27ZM48.6502 115.82C48.6074 115.83 48.5629 115.83 48.5202 115.82C48.4412 115.784 48.3791 115.72 48.3473 115.639C48.3155 115.559 48.3165 115.469 48.3502 115.39C48.6002 114.82 48.8902 114.22 49.2202 113.62C49.2401 113.582 49.2674 113.548 49.3004 113.521C49.3335 113.494 49.3717 113.474 49.4127 113.462C49.4537 113.449 49.4968 113.446 49.5393 113.451C49.5818 113.455 49.6229 113.469 49.6602 113.49C49.7347 113.532 49.7899 113.601 49.8141 113.683C49.8384 113.765 49.8298 113.854 49.7902 113.93C49.4702 114.51 49.1802 115.09 48.9402 115.65C48.9167 115.708 48.8767 115.757 48.8252 115.793C48.7736 115.829 48.7128 115.848 48.6502 115.85V115.82ZM23.5202 115.27C23.4608 115.271 23.4023 115.256 23.351 115.226C23.2998 115.196 23.258 115.152 23.2302 115.1C23.1906 115.024 23.182 114.935 23.2062 114.853C23.2305 114.771 23.2857 114.702 23.3602 114.66C23.9302 114.35 24.5202 114.05 25.1102 113.76C25.1482 113.741 25.1896 113.73 25.2318 113.727C25.2741 113.725 25.3165 113.731 25.3565 113.745C25.3965 113.759 25.4334 113.78 25.4649 113.809C25.4964 113.837 25.522 113.871 25.5402 113.91C25.5589 113.948 25.5697 113.989 25.5723 114.031C25.5749 114.074 25.569 114.116 25.555 114.156C25.5411 114.196 25.5193 114.233 25.491 114.264C25.4627 114.296 25.4284 114.321 25.3902 114.34C24.8102 114.62 24.2302 114.92 23.6702 115.23C23.625 115.257 23.5729 115.271 23.5202 115.27ZM58.6002 115.02C58.5523 115.019 58.5051 115.008 58.4619 114.987C58.4188 114.966 58.3807 114.936 58.3502 114.9C57.9459 114.427 57.4897 114.001 56.9901 113.63C56.9546 113.606 56.9245 113.575 56.9015 113.539C56.8786 113.503 56.8633 113.462 56.8567 113.42C56.8501 113.378 56.8524 113.334 56.8633 113.293C56.8742 113.252 56.8936 113.213 56.9202 113.18C56.9441 113.144 56.975 113.114 57.0111 113.091C57.0472 113.068 57.0876 113.053 57.1299 113.046C57.1721 113.04 57.2153 113.042 57.2566 113.053C57.298 113.064 57.3366 113.083 57.3702 113.11C57.9144 113.512 58.411 113.975 58.8502 114.49C58.9071 114.551 58.9388 114.631 58.9388 114.715C58.9388 114.798 58.9071 114.878 58.8502 114.94C58.806 114.979 58.7524 115.006 58.6945 115.018C58.6366 115.031 58.5765 115.028 58.5202 115.01L58.6002 115.02ZM27.0202 113.57C26.9567 113.567 26.8953 113.546 26.8424 113.511C26.7896 113.476 26.7473 113.427 26.7202 113.37C26.7037 113.331 26.695 113.289 26.6947 113.247C26.6943 113.205 26.7023 113.163 26.7181 113.124C26.7338 113.085 26.7572 113.05 26.7867 113.02C26.8163 112.99 26.8514 112.966 26.8902 112.95C27.5002 112.69 28.1102 112.45 28.7202 112.22C28.8011 112.19 28.8904 112.194 28.9688 112.229C29.0473 112.265 29.1088 112.329 29.1402 112.41C29.1691 112.492 29.1642 112.582 29.1267 112.661C29.0893 112.739 29.0222 112.8 28.9402 112.83C28.3402 113.05 27.7402 113.29 27.1502 113.54C27.0935 113.564 27.0308 113.571 26.9702 113.56L27.0202 113.57ZM55.5102 112.69C55.4646 112.704 55.4157 112.704 55.3702 112.69C54.7976 112.413 54.2101 112.17 53.6102 111.96C53.5699 111.946 53.5327 111.925 53.5008 111.897C53.4689 111.869 53.4429 111.835 53.4243 111.796C53.4057 111.758 53.3949 111.717 53.3924 111.674C53.39 111.632 53.396 111.59 53.4102 111.55C53.4237 111.509 53.4451 111.472 53.4731 111.44C53.5011 111.408 53.5351 111.382 53.5733 111.364C53.6114 111.345 53.6529 111.334 53.6953 111.332C53.7377 111.329 53.7801 111.335 53.8202 111.35C54.4474 111.568 55.0617 111.822 55.6602 112.11C55.7364 112.15 55.7937 112.219 55.8199 112.301C55.8461 112.383 55.839 112.472 55.8002 112.55C55.7635 112.603 55.7112 112.644 55.6505 112.668C55.5897 112.691 55.5233 112.695 55.4602 112.68L55.5102 112.69ZM50.5102 112.42C50.4494 112.423 50.3892 112.406 50.3402 112.37C50.3038 112.348 50.2721 112.319 50.2472 112.285C50.2222 112.251 50.2046 112.212 50.1952 112.171C50.1859 112.13 50.185 112.087 50.1927 112.046C50.2005 112.004 50.2166 111.965 50.2401 111.93C50.4001 111.67 50.5701 111.42 50.7401 111.15L49.8502 110.97C49.7667 110.955 49.6924 110.908 49.6437 110.838C49.5949 110.769 49.5757 110.683 49.5902 110.6C49.5974 110.557 49.613 110.517 49.6361 110.48C49.6593 110.444 49.6895 110.413 49.725 110.389C49.7605 110.365 49.8004 110.348 49.8426 110.339C49.8847 110.331 49.9281 110.331 49.9702 110.34C50.3602 110.41 50.7502 110.49 51.1302 110.58L51.3302 110.3C51.3542 110.264 51.385 110.234 51.4207 110.211C51.4565 110.188 51.4965 110.172 51.5384 110.165C51.5803 110.158 51.6232 110.159 51.6648 110.168C51.7063 110.177 51.7455 110.195 51.7802 110.22C51.8153 110.244 51.8453 110.274 51.8684 110.31C51.8915 110.346 51.9073 110.386 51.9147 110.428C51.9222 110.47 51.9211 110.513 51.9118 110.554C51.9024 110.596 51.8849 110.635 51.8602 110.67L51.8102 110.74H51.8902C51.9736 110.763 52.045 110.818 52.0896 110.892C52.1342 110.966 52.1487 111.055 52.1302 111.14C52.1046 111.221 52.0493 111.29 51.9752 111.333C51.9011 111.375 51.8136 111.389 51.7302 111.37L51.4202 111.3C51.1902 111.62 50.9802 111.95 50.7802 112.3C50.7486 112.337 50.7086 112.367 50.6634 112.386C50.6182 112.405 50.5691 112.413 50.5202 112.41L50.5102 112.42ZM30.6502 112.21C30.5814 112.212 30.5136 112.192 30.4575 112.153C30.4014 112.113 30.3601 112.055 30.3402 111.99C30.3148 111.907 30.3226 111.818 30.3618 111.742C30.401 111.665 30.4687 111.607 30.5502 111.58C31.1702 111.39 31.8102 111.2 32.4402 111.04C32.4809 111.028 32.5236 111.024 32.5658 111.029C32.6079 111.035 32.6485 111.048 32.6851 111.07C32.7217 111.091 32.7534 111.12 32.7784 111.155C32.8033 111.189 32.8209 111.228 32.8302 111.27C32.8407 111.31 32.8431 111.353 32.8373 111.394C32.8314 111.436 32.8174 111.476 32.796 111.512C32.7746 111.548 32.7463 111.58 32.7127 111.605C32.6791 111.631 32.6409 111.649 32.6002 111.66C31.9802 111.82 31.3601 112.01 30.7401 112.2L30.6502 112.21ZM34.4102 111.21C34.3359 111.211 34.2638 111.185 34.2069 111.137C34.15 111.089 34.1122 111.023 34.1002 110.95C34.0914 110.908 34.0909 110.865 34.0988 110.824C34.1066 110.782 34.1227 110.743 34.1459 110.707C34.1692 110.672 34.1992 110.642 34.2342 110.618C34.2693 110.594 34.3087 110.578 34.3502 110.57C34.9902 110.43 35.6402 110.31 36.2802 110.21C36.3637 110.195 36.4496 110.214 36.519 110.263C36.5883 110.312 36.6355 110.386 36.6502 110.47C36.6588 110.512 36.6585 110.555 36.6493 110.597C36.6401 110.64 36.6222 110.679 36.5968 110.714C36.5714 110.749 36.539 110.778 36.5017 110.8C36.4644 110.821 36.423 110.835 36.3802 110.84C35.7502 110.95 35.1102 111.07 34.4802 111.2L34.4102 111.21ZM47.9802 110.66C47.3502 110.57 46.7002 110.5 46.0602 110.45C45.9744 110.442 45.895 110.401 45.839 110.336C45.7829 110.27 45.7546 110.185 45.7602 110.1C45.7639 110.057 45.776 110.017 45.7957 109.979C45.8154 109.942 45.8422 109.909 45.8747 109.882C45.9073 109.855 45.9449 109.834 45.9853 109.822C46.0257 109.81 46.0681 109.805 46.1102 109.81C46.7602 109.81 47.4202 109.93 48.1102 110.02C48.152 110.024 48.1924 110.038 48.2289 110.059C48.2654 110.08 48.2973 110.108 48.3226 110.141C48.3479 110.175 48.366 110.214 48.3759 110.255C48.3858 110.296 48.3872 110.338 48.3802 110.38C48.3766 110.428 48.3619 110.475 48.3374 110.517C48.3128 110.559 48.2791 110.595 48.2386 110.622C48.1981 110.649 48.1519 110.667 48.1037 110.673C48.0554 110.679 48.0064 110.675 47.9602 110.66H47.9802ZM38.2602 110.58C38.1802 110.58 38.1031 110.55 38.0439 110.497C37.9846 110.443 37.9477 110.369 37.9402 110.29C37.9317 110.206 37.9563 110.123 38.0086 110.057C38.061 109.992 38.137 109.95 38.2202 109.94C38.8702 109.86 39.5302 109.8 40.2202 109.76C40.2622 109.757 40.3044 109.762 40.3443 109.776C40.3841 109.79 40.4209 109.811 40.4525 109.839C40.4841 109.867 40.5099 109.901 40.5284 109.938C40.5468 109.976 40.5576 110.017 40.5602 110.06C40.5643 110.102 40.5597 110.145 40.5466 110.185C40.5335 110.226 40.5122 110.263 40.4841 110.295C40.456 110.327 40.4216 110.352 40.383 110.37C40.3445 110.388 40.3027 110.398 40.2602 110.4C39.6202 110.45 38.9702 110.5 38.3402 110.58H38.2602ZM44.1002 110.34C43.4502 110.34 42.8102 110.34 42.1602 110.34C42.1186 110.341 42.0773 110.334 42.0385 110.319C41.9997 110.304 41.9643 110.281 41.9345 110.252C41.9046 110.223 41.8809 110.189 41.8647 110.151C41.8485 110.112 41.8402 110.071 41.8402 110.03C41.8388 109.988 41.8458 109.946 41.8607 109.906C41.8756 109.867 41.898 109.831 41.9268 109.8C41.9556 109.77 41.9901 109.745 42.0285 109.728C42.0668 109.71 42.1082 109.701 42.1502 109.7C42.8102 109.7 43.4602 109.7 44.1502 109.7C44.1931 109.701 44.2353 109.711 44.2743 109.729C44.3133 109.746 44.3484 109.772 44.3773 109.804C44.4062 109.836 44.4284 109.873 44.4427 109.913C44.4569 109.954 44.4629 109.997 44.4602 110.04C44.4581 110.085 44.4462 110.13 44.4253 110.171C44.4043 110.212 44.3748 110.248 44.3388 110.276C44.3027 110.305 44.261 110.325 44.2163 110.336C44.1717 110.347 44.1253 110.348 44.0802 110.34H44.1002ZM52.7502 109.23C52.6773 109.23 52.6066 109.206 52.5502 109.16C52.491 109.1 52.4577 109.019 52.4577 108.935C52.4577 108.85 52.491 108.769 52.5502 108.71C52.9502 108.19 53.3702 107.71 53.7902 107.18C53.8501 107.12 53.9309 107.087 54.0152 107.087C54.0994 107.087 54.1802 107.12 54.2401 107.18C54.3 107.241 54.3335 107.324 54.3335 107.41C54.3335 107.495 54.3 107.578 54.2401 107.64C53.8301 108.12 53.4102 108.64 53.0202 109.13C52.9885 109.176 52.945 109.214 52.8941 109.239C52.8431 109.263 52.7866 109.274 52.7302 109.27L52.7502 109.23ZM55.2902 106.23C55.2494 106.23 55.2089 106.222 55.1712 106.206C55.1334 106.191 55.0991 106.168 55.0702 106.14C55.0396 106.111 55.0153 106.076 54.9986 106.037C54.982 105.998 54.9734 105.957 54.9734 105.915C54.9734 105.872 54.982 105.831 54.9986 105.792C55.0153 105.753 55.0396 105.719 55.0702 105.69C55.5202 105.21 55.9902 104.75 56.4702 104.31C56.4992 104.279 56.534 104.255 56.5727 104.238C56.6114 104.221 56.6531 104.213 56.6952 104.213C56.7373 104.213 56.779 104.221 56.8177 104.238C56.8563 104.255 56.8912 104.279 56.9202 104.31C56.951 104.339 56.9755 104.375 56.9923 104.415C57.009 104.454 57.0177 104.497 57.0177 104.54C57.0177 104.582 57.009 104.625 56.9923 104.664C56.9755 104.704 56.951 104.74 56.9202 104.77C56.4502 105.2 55.9902 105.66 55.5402 106.12C55.5139 106.167 55.4746 106.207 55.4268 106.233C55.379 106.26 55.3247 106.273 55.2702 106.27L55.2902 106.23ZM58.1402 103.58C58.0456 103.577 57.9558 103.538 57.8902 103.47C57.8303 103.408 57.7968 103.325 57.7968 103.24C57.7968 103.154 57.8303 103.071 57.8902 103.01C58.4002 102.59 58.8902 102.19 59.4502 101.81C59.4848 101.785 59.5241 101.767 59.5656 101.758C59.6071 101.749 59.6501 101.748 59.692 101.755C59.7339 101.762 59.7739 101.778 59.8096 101.801C59.8454 101.824 59.8762 101.854 59.9002 101.89C59.9254 101.924 59.9436 101.962 59.9537 102.003C59.9638 102.045 59.9657 102.087 59.9592 102.129C59.9527 102.171 59.938 102.211 59.9158 102.247C59.8937 102.283 59.8645 102.315 59.8302 102.34C59.3102 102.713 58.8002 103.103 58.3002 103.51C58.2549 103.566 58.1912 103.605 58.1202 103.62L58.1402 103.58ZM61.3102 101.32C61.2561 101.319 61.2031 101.305 61.1559 101.279C61.1086 101.253 61.0689 101.215 61.0402 101.17C60.9948 101.096 60.9799 101.008 60.9986 100.924C61.0173 100.84 61.0681 100.767 61.1402 100.72C61.7002 100.38 62.2802 100.05 62.8602 99.7195C62.9373 99.6807 63.0265 99.6736 63.1087 99.6998C63.191 99.7259 63.2597 99.7833 63.3002 99.8595C63.3386 99.9351 63.3454 100.023 63.3191 100.103C63.2929 100.184 63.2357 100.251 63.1602 100.29C62.5902 100.59 62.0302 100.91 61.4802 101.29C61.4548 101.313 61.4249 101.332 61.3922 101.344C61.3596 101.356 61.3249 101.361 61.2902 101.36L61.3102 101.32ZM64.7702 99.5195C64.707 99.521 64.6448 99.5038 64.5914 99.47C64.538 99.4362 64.4958 99.3873 64.4702 99.3295C64.4537 99.2908 64.445 99.2492 64.4447 99.2071C64.4443 99.165 64.4523 99.1233 64.468 99.0843C64.4838 99.0452 64.5072 99.0097 64.5367 98.9797C64.5663 98.9498 64.6014 98.9259 64.6402 98.9095C65.2402 98.6495 65.8602 98.4095 66.4802 98.1895C66.5202 98.1754 66.5626 98.1694 66.605 98.1718C66.6474 98.1742 66.6889 98.185 66.7271 98.2036C66.7652 98.2223 66.7993 98.2483 66.8273 98.2802C66.8553 98.3121 66.8767 98.3493 66.8902 98.3895C66.9043 98.4296 66.9104 98.472 66.9079 98.5144C66.9055 98.5568 66.8947 98.5983 66.8761 98.6364C66.8575 98.6746 66.8314 98.7087 66.7995 98.7367C66.7676 98.7647 66.7304 98.786 66.6902 98.7995C66.0902 99.0095 65.4802 99.2495 64.9002 99.4995C64.8561 99.532 64.8045 99.5527 64.7502 99.5595L64.7702 99.5195ZM89.6702 98.7195H89.6002L87.7002 98.3195C87.6578 98.3123 87.6173 98.2967 87.5811 98.2736C87.545 98.2504 87.5138 98.2202 87.4895 98.1847C87.4653 98.1493 87.4484 98.1093 87.4399 98.0671C87.4314 98.025 87.4315 97.9816 87.4402 97.9395C87.4593 97.8571 87.5095 97.7851 87.5802 97.7386C87.651 97.6921 87.7368 97.6745 87.8202 97.6895C88.4602 97.8095 89.1001 97.9495 89.7401 98.0895C89.8226 98.1087 89.8945 98.1589 89.9411 98.2296C89.9876 98.3003 90.0052 98.3862 89.9901 98.4695C89.9781 98.5508 89.937 98.6249 89.8745 98.6782C89.812 98.7315 89.7323 98.7604 89.6502 98.7595L89.6702 98.7195ZM68.4502 98.2395C68.3775 98.2418 68.3062 98.2193 68.2481 98.1757C68.1899 98.1321 68.1483 98.0699 68.1302 97.9995C68.1196 97.9588 68.1173 97.9164 68.1231 97.8748C68.129 97.8331 68.143 97.7931 68.1643 97.7569C68.1857 97.7206 68.214 97.689 68.2476 97.6637C68.2812 97.6384 68.3195 97.62 68.3602 97.6095C68.9902 97.4395 69.6302 97.2795 70.2802 97.1495C70.3649 97.1348 70.452 97.1537 70.523 97.2023C70.594 97.2509 70.6432 97.3252 70.6602 97.4095C70.6752 97.4929 70.6576 97.5787 70.6111 97.6495C70.5646 97.7202 70.4926 97.7703 70.4102 97.7895C69.7702 97.9095 69.1402 98.0595 68.5302 98.2295L68.4502 98.2395ZM85.8502 97.9595H85.7902C85.1235 97.8462 84.4835 97.7462 83.8701 97.6595C83.786 97.6448 83.7109 97.598 83.6606 97.529C83.6102 97.46 83.5886 97.3741 83.6002 97.2895C83.605 97.2477 83.6183 97.2073 83.6393 97.1708C83.6602 97.1343 83.6885 97.1024 83.7221 97.0771C83.7558 97.0519 83.7943 97.0337 83.8352 97.0238C83.8762 97.0139 83.9187 97.0125 83.9602 97.0195C84.6102 97.1095 85.2502 97.2095 85.9002 97.3195C85.9837 97.3342 86.058 97.3814 86.1067 97.4507C86.1555 97.5201 86.1747 97.606 86.1602 97.6895C86.1603 97.732 86.1516 97.774 86.1348 97.813C86.118 97.8519 86.0933 97.887 86.0624 97.9161C86.0315 97.9452 85.9949 97.9676 85.9549 97.9819C85.915 97.9963 85.8725 98.0023 85.8302 97.9995L85.8502 97.9595ZM72.2602 97.4695C72.1824 97.4681 72.1076 97.4392 72.049 97.3879C71.9905 97.3367 71.9519 97.2664 71.9402 97.1895C71.9346 97.1475 71.9374 97.1047 71.9485 97.0637C71.9596 97.0228 71.9787 96.9844 72.0048 96.9509C72.0308 96.9174 72.0633 96.8894 72.1003 96.8686C72.1373 96.8477 72.178 96.8345 72.2202 96.8295C72.8602 96.7395 73.5202 96.6695 74.2202 96.6195C74.2617 96.6154 74.3036 96.6197 74.3434 96.6322C74.3832 96.6447 74.4201 96.6651 74.4519 96.6922C74.4836 96.7192 74.5096 96.7524 74.5282 96.7898C74.5468 96.8271 74.5577 96.8679 74.5602 96.9095C74.5643 96.9516 74.5601 96.994 74.5477 97.0345C74.5353 97.0749 74.5151 97.1124 74.4881 97.145C74.4612 97.1775 74.428 97.2044 74.3906 97.2241C74.3532 97.2437 74.3123 97.2558 74.2702 97.2595C73.6202 97.3095 72.9702 97.3795 72.3502 97.4695H72.2602ZM81.9901 97.4195C81.3501 97.3495 80.7001 97.2995 80.0602 97.2495C80.0181 97.247 79.977 97.2362 79.9391 97.2177C79.9013 97.1992 79.8674 97.1734 79.8396 97.1418C79.8117 97.1103 79.7903 97.0735 79.7767 97.0336C79.7631 96.9937 79.7575 96.9516 79.7602 96.9095C79.7627 96.8666 79.7738 96.8245 79.7929 96.786C79.812 96.7474 79.8387 96.7131 79.8714 96.6851C79.904 96.6571 79.942 96.636 79.9831 96.623C80.0241 96.61 80.0674 96.6054 80.1102 96.6095C80.7602 96.6095 81.4102 96.7095 82.1102 96.7795C82.1523 96.7833 82.1932 96.7953 82.2306 96.815C82.268 96.8347 82.3011 96.8616 82.3281 96.8941C82.3551 96.9266 82.3753 96.9642 82.3877 97.0046C82.4 97.045 82.4043 97.0875 82.4002 97.1295C82.4053 97.1834 82.3966 97.2378 82.3749 97.2874C82.3533 97.3371 82.3194 97.3804 82.2764 97.4134C82.2334 97.4464 82.1828 97.4679 82.1292 97.476C82.0757 97.484 82.021 97.4784 81.9702 97.4595L81.9901 97.4195ZM76.1502 97.1595C76.066 97.1597 75.985 97.1277 75.9236 97.07C75.8623 97.0124 75.8253 96.9335 75.8202 96.8495C75.8188 96.8067 75.8261 96.764 75.8416 96.724C75.8571 96.684 75.8805 96.6475 75.9103 96.6168C75.9402 96.586 75.9759 96.5615 76.0154 96.5448C76.0548 96.5281 76.0973 96.5195 76.1402 96.5195C76.7902 96.5195 77.4502 96.5195 78.1402 96.5195C78.183 96.5195 78.2255 96.5281 78.265 96.5448C78.3045 96.5615 78.3402 96.586 78.3701 96.6168C78.3999 96.6475 78.4233 96.684 78.4388 96.724C78.4542 96.764 78.4615 96.8067 78.4602 96.8495C78.4576 96.9326 78.4227 97.0115 78.363 97.0694C78.3033 97.1272 78.2233 97.1596 78.1402 97.1595H76.1902H76.1502Z" fill="#999999"/>
<path d="M126.11 45.13L128.93 46.35L140.2 38.49L143.2 40.15C145.61 41.59 147.95 41.69 149.07 41.05L149.3 41.16C151.04 41.92 152.07 41.24 152.42 40.42C152.77 39.6 152.57 38.42 150.83 37.64L150.6 37.54C150.39 36.54 149.48 34.86 145.93 33.87L142.66 32.82L140.66 19.23L137.84 18L135.65 30.59L127.59 27.83L126.37 24.6L124.13 23.77L123.97 26.77L123.17 26.7L122.44 28.37L123.04 28.96L120.92 31.16L123.06 32.23L126.24 30.91L133.77 34.91L126.11 45.13ZM126.32 30.18L123.12 31.51L122.12 30.99L124.06 28.99L123.33 28.25L123.67 27.46L124.67 27.55L124.82 24.75L125.91 25.15L127.13 28.39L136.25 31.5L138.42 18.99L140.11 19.72L142.06 33.36L145.75 34.54C149.19 35.49 149.87 37.03 149.97 37.86V38.07L150.17 38.14C150.297 38.1762 150.421 38.223 150.54 38.28C151.61 38.74 152.09 39.47 151.78 40.17C151.47 40.87 150.62 41.03 149.55 40.56C149.43 40.5114 149.313 40.4546 149.2 40.39L149.01 40.28L148.83 40.41C148.1 40.95 145.97 41.05 143.51 39.59L140.15 37.71L128.85 45.6L127.16 44.87L134.82 34.73L126.32 30.18Z" fill="#999999"/>
<path d="M29.3302 129.06C29.276 129.06 29.2225 129.047 29.1751 129.021C29.1278 128.994 29.0881 128.956 29.0602 128.91C28.7002 128.363 28.3668 127.813 28.0602 127.26C28.0148 127.186 27.9999 127.098 28.0186 127.014C28.0373 126.93 28.0881 126.857 28.1602 126.81C28.2346 126.765 28.3235 126.752 28.4077 126.772C28.492 126.793 28.5647 126.846 28.6102 126.92C28.9502 127.47 29.2902 128.01 29.6102 128.56C29.6344 128.595 29.6513 128.635 29.6599 128.676C29.6685 128.718 29.6686 128.762 29.6603 128.804C29.6519 128.845 29.6351 128.885 29.6111 128.921C29.587 128.956 29.5561 128.986 29.5202 129.01C29.4618 129.041 29.3966 129.059 29.3302 129.06ZM27.3302 125.74C27.2737 125.739 27.2183 125.724 27.1693 125.696C27.1203 125.668 27.0793 125.628 27.0502 125.58C26.7302 125.01 26.4102 124.44 26.0502 123.87C26.0097 123.795 25.9996 123.707 26.0219 123.625C26.0443 123.544 26.0974 123.473 26.1702 123.43C26.2461 123.39 26.3344 123.381 26.4165 123.406C26.4986 123.43 26.568 123.485 26.6102 123.56C26.9202 124.13 27.2402 124.69 27.5602 125.25C27.6046 125.324 27.618 125.413 27.5974 125.497C27.5768 125.581 27.5239 125.654 27.4502 125.7C27.3981 125.728 27.3394 125.742 27.2802 125.74H27.3302ZM25.4702 122.32C25.41 122.319 25.3512 122.302 25.3001 122.27C25.249 122.238 25.2075 122.193 25.1801 122.14C24.8801 121.56 24.5902 120.97 24.3102 120.39C24.2915 120.351 24.2806 120.31 24.278 120.268C24.2755 120.226 24.2814 120.183 24.2953 120.143C24.3093 120.103 24.331 120.066 24.3593 120.035C24.3876 120.003 24.4219 119.978 24.4602 119.96C24.4982 119.941 24.5396 119.93 24.5819 119.927C24.6242 119.925 24.6665 119.931 24.7065 119.945C24.7465 119.959 24.7833 119.98 24.8149 120.009C24.8464 120.037 24.872 120.071 24.8902 120.11C25.1702 120.69 25.4602 121.27 25.7602 121.85C25.7788 121.888 25.7898 121.929 25.7923 121.971C25.7949 122.013 25.789 122.056 25.7751 122.096C25.7611 122.136 25.7393 122.173 25.711 122.204C25.6827 122.236 25.6485 122.261 25.6102 122.28C25.5834 122.3 25.5524 122.314 25.5196 122.321C25.4868 122.327 25.4529 122.327 25.4202 122.32H25.4702ZM23.7802 118.8C23.7175 118.799 23.6564 118.78 23.6034 118.747C23.5505 118.713 23.5078 118.666 23.4802 118.61L22.7002 116.82C22.6671 116.739 22.6675 116.648 22.7013 116.567C22.735 116.487 22.7993 116.423 22.8802 116.39C22.9599 116.36 23.0481 116.362 23.1264 116.395C23.2047 116.429 23.267 116.491 23.3002 116.57C23.5502 117.16 23.8102 117.75 24.0702 118.35C24.0883 118.387 24.0986 118.429 24.1004 118.471C24.1021 118.513 24.0953 118.555 24.0803 118.594C24.0653 118.633 24.0425 118.669 24.0133 118.699C23.984 118.729 23.949 118.753 23.9102 118.77C23.8546 118.797 23.7918 118.808 23.7302 118.8H23.7802ZM22.2702 115.21C22.2062 115.209 22.1437 115.19 22.0904 115.154C22.0372 115.119 21.9954 115.068 21.9702 115.01C21.7302 114.39 21.5002 113.78 21.2702 113.17C21.256 113.129 21.25 113.087 21.2524 113.045C21.2548 113.002 21.2657 112.961 21.2843 112.923C21.3029 112.884 21.3289 112.85 21.3608 112.822C21.3927 112.794 21.4299 112.773 21.4702 112.76C21.5499 112.733 21.6366 112.738 21.7128 112.773C21.789 112.809 21.8488 112.872 21.8802 112.95C22.1002 113.56 22.3302 114.16 22.5702 114.77C22.6002 114.849 22.5982 114.937 22.5646 115.016C22.5311 115.094 22.4686 115.156 22.3902 115.19L22.2702 115.21ZM20.9301 111.55C20.8635 111.549 20.7987 111.527 20.7449 111.488C20.6911 111.448 20.651 111.393 20.6302 111.33C20.4102 110.71 20.2102 110.09 20.0202 109.47C19.9948 109.387 20.0026 109.298 20.0418 109.222C20.081 109.145 20.1486 109.087 20.2302 109.06C20.3124 109.034 20.4013 109.042 20.4779 109.081C20.5545 109.12 20.6127 109.188 20.6402 109.27C20.8302 109.89 21.0301 110.5 21.2401 111.12C21.2655 111.202 21.2578 111.291 21.2185 111.367C21.1793 111.444 21.1117 111.502 21.0302 111.53L20.9301 111.55ZM19.7702 107.83C19.6996 107.828 19.6314 107.804 19.5757 107.761C19.5199 107.717 19.4794 107.657 19.4602 107.59C19.2802 106.96 19.1002 106.33 18.9402 105.71C18.9186 105.626 18.9307 105.537 18.9737 105.463C19.0167 105.388 19.0872 105.333 19.1702 105.31C19.2109 105.299 19.2533 105.297 19.2949 105.302C19.3365 105.308 19.3766 105.322 19.4128 105.344C19.449 105.365 19.4807 105.393 19.506 105.427C19.5313 105.461 19.5497 105.499 19.5602 105.54C19.7302 106.16 19.9002 106.79 20.0802 107.41C20.0924 107.45 20.0964 107.493 20.0919 107.535C20.0874 107.577 20.0745 107.618 20.0541 107.656C20.0336 107.693 20.0059 107.726 19.9726 107.752C19.9393 107.779 19.9011 107.798 19.8602 107.81L19.7702 107.83ZM18.7702 104.06C18.6983 104.057 18.6292 104.032 18.5732 103.987C18.5173 103.941 18.4776 103.879 18.4602 103.81C18.3102 103.17 18.1602 102.53 18.0302 101.9C18.0199 101.859 18.018 101.816 18.0246 101.775C18.0312 101.733 18.0462 101.694 18.0686 101.658C18.0911 101.622 18.1205 101.592 18.1552 101.568C18.1898 101.544 18.2289 101.528 18.2702 101.52C18.3116 101.509 18.3546 101.507 18.3968 101.514C18.4389 101.52 18.4794 101.535 18.5157 101.557C18.5521 101.58 18.5836 101.609 18.6084 101.644C18.6332 101.679 18.6508 101.718 18.6602 101.76C18.7902 102.39 18.9402 103.02 19.0902 103.66C19.1084 103.743 19.0936 103.83 19.0488 103.903C19.004 103.976 18.9329 104.028 18.8502 104.05L18.7702 104.06ZM17.9502 100.24C17.8747 100.241 17.8013 100.216 17.7427 100.168C17.6842 100.12 17.6443 100.054 17.6302 99.9795C17.5102 99.3395 17.3902 98.6995 17.2802 98.0595C17.2657 97.976 17.2849 97.8901 17.3337 97.8207C17.3824 97.7514 17.4567 97.7042 17.5402 97.6895C17.5823 97.6809 17.6257 97.6808 17.6678 97.6893C17.7099 97.6977 17.7499 97.7146 17.7854 97.7389C17.8208 97.7631 17.851 97.7943 17.8742 97.8305C17.8973 97.8667 17.913 97.9072 17.9202 97.9495C18.0302 98.5795 18.1402 99.2195 18.2702 99.8595C18.2788 99.9016 18.279 99.945 18.2705 99.9872C18.262 100.029 18.2451 100.069 18.2209 100.105C18.1966 100.14 18.1654 100.17 18.1292 100.194C18.0931 100.217 18.0525 100.232 18.0102 100.24H17.9502ZM17.2902 96.3995C17.2128 96.4027 17.137 96.3767 17.0777 96.3267C17.0185 96.2767 16.9801 96.2064 16.9702 96.1295C16.8702 95.4795 16.7802 94.8295 16.7002 94.1895C16.6946 94.1475 16.6974 94.1047 16.7085 94.0637C16.7196 94.0228 16.7387 93.9844 16.7648 93.9509C16.7909 93.9174 16.8233 93.8894 16.8603 93.8686C16.8972 93.8477 16.938 93.8345 16.9802 93.8295C17.0225 93.8225 17.0657 93.8242 17.1073 93.8348C17.1488 93.8453 17.1878 93.8643 17.2216 93.8906C17.2554 93.9169 17.2834 93.9499 17.3038 93.9876C17.3242 94.0253 17.3366 94.0668 17.3402 94.1095C17.4202 94.7362 17.5102 95.3762 17.6102 96.0295C17.6218 96.1142 17.6002 96.2 17.5498 96.269C17.4995 96.338 17.4243 96.3848 17.3402 96.3995H17.2902ZM16.8002 92.5295C16.7196 92.5323 16.6411 92.5036 16.5814 92.4494C16.5217 92.3953 16.4854 92.32 16.4802 92.2395C16.4102 91.5895 16.3402 90.9395 16.2902 90.2995C16.2846 90.2136 16.3129 90.1289 16.3689 90.0635C16.425 89.9981 16.5044 89.9572 16.5902 89.9495C16.632 89.9439 16.6745 89.9471 16.7149 89.959C16.7554 89.9709 16.7928 89.9912 16.8249 90.0186C16.857 90.046 16.883 90.0798 16.9011 90.1178C16.9192 90.1559 16.9291 90.1974 16.9301 90.2395C16.9901 90.8795 17.0502 91.5295 17.1202 92.1795C17.1243 92.2216 17.1201 92.264 17.1077 92.3045C17.0953 92.3449 17.0751 92.3824 17.0481 92.415C17.0212 92.4475 16.988 92.4744 16.9506 92.494C16.9132 92.5137 16.8723 92.5258 16.8302 92.5295H16.8002ZM16.4702 88.6495C16.3887 88.6497 16.3102 88.6187 16.2507 88.563C16.1912 88.5072 16.1553 88.4309 16.1502 88.3495C16.1502 87.6795 16.0702 87.0295 16.0502 86.3495C16.0475 86.3067 16.0534 86.2637 16.0677 86.2232C16.0819 86.1827 16.1042 86.1455 16.1331 86.1138C16.162 86.0821 16.197 86.0565 16.2361 86.0386C16.2751 86.0207 16.3173 86.0108 16.3602 86.0095C16.4441 86.0134 16.5241 86.0465 16.5862 86.1031C16.6483 86.1597 16.6886 86.2363 16.7002 86.3195C16.7002 86.9595 16.7002 87.6095 16.7902 88.2595C16.7958 88.3455 16.7675 88.4302 16.7114 88.4956C16.6553 88.561 16.5759 88.6019 16.4901 88.6095L16.4702 88.6495ZM16.3202 84.7495C16.2353 84.7495 16.1539 84.7158 16.0939 84.6558C16.0339 84.5958 16.0002 84.5144 16.0002 84.4295C16.0002 83.9695 16.0002 83.5195 16.0002 83.0695V82.4795C16.0002 82.3947 16.0339 82.3133 16.0939 82.2533C16.1539 82.1932 16.2353 82.1595 16.3202 82.1595C16.405 82.1595 16.4864 82.1932 16.5464 82.2533C16.6064 82.3133 16.6402 82.3947 16.6402 82.4795V83.0695C16.6402 83.5195 16.6402 83.9695 16.6402 84.4195C16.6415 84.4624 16.6342 84.5051 16.6187 84.5451C16.6033 84.585 16.5799 84.6215 16.5501 84.6523C16.5202 84.6831 16.4845 84.7076 16.445 84.7243C16.4055 84.741 16.363 84.7495 16.3202 84.7495ZM16.3202 80.8495C16.2773 80.8496 16.2348 80.841 16.1953 80.8242C16.1559 80.8075 16.1202 80.7831 16.0903 80.7523C16.0605 80.7215 16.0371 80.6851 16.0216 80.6451C16.0061 80.6051 15.9988 80.5624 16.0002 80.5195C16.0002 79.8495 16.0602 79.1995 16.0902 78.5195C16.0978 78.4337 16.1387 78.3543 16.2041 78.2983C16.2695 78.2422 16.3542 78.214 16.4402 78.2195C16.4822 78.2221 16.5233 78.2329 16.5612 78.2514C16.599 78.2699 16.6329 78.2956 16.6608 78.3272C16.6887 78.3588 16.71 78.3956 16.7237 78.4355C16.7373 78.4753 16.7429 78.5175 16.7401 78.5595C16.7401 79.1895 16.6702 79.8395 16.6502 80.4995C16.6549 80.5466 16.649 80.5942 16.6331 80.6388C16.6172 80.6834 16.5915 80.7239 16.558 80.7574C16.5245 80.7909 16.484 80.8165 16.4394 80.8324C16.3948 80.8484 16.3473 80.8542 16.3002 80.8495H16.3202ZM16.5502 76.9595C16.5081 76.9558 16.4671 76.9437 16.4297 76.924C16.3923 76.9044 16.3592 76.8775 16.3322 76.845C16.3053 76.8124 16.285 76.7749 16.2727 76.7345C16.2603 76.694 16.256 76.6516 16.2602 76.6095C16.3202 75.9429 16.3902 75.2762 16.4702 74.6095C16.4737 74.5668 16.4861 74.5253 16.5065 74.4876C16.5269 74.4499 16.5549 74.4169 16.5888 74.3906C16.6226 74.3643 16.6615 74.3453 16.7031 74.3348C16.7446 74.3243 16.7879 74.3225 16.8302 74.3295C16.9142 74.342 16.9902 74.3863 17.0424 74.4534C17.0945 74.5204 17.1188 74.605 17.1102 74.6895C17.0302 75.2995 16.9602 75.9495 16.9002 76.6195C16.9042 76.6688 16.8967 76.7182 16.8784 76.7641C16.8601 76.81 16.8314 76.851 16.7946 76.8839C16.7578 76.9168 16.7138 76.9408 16.6662 76.9539C16.6186 76.967 16.5687 76.969 16.5202 76.9595H16.5502ZM17.0302 73.0895C16.9467 73.0749 16.8724 73.0277 16.8236 72.9583C16.7749 72.889 16.7557 72.8031 16.7702 72.7195L16.8302 72.3295C16.9202 71.8195 17.0202 71.3295 17.1202 70.7895C17.1285 70.7481 17.145 70.7087 17.1687 70.6736C17.1923 70.6385 17.2227 70.6085 17.258 70.5853C17.2934 70.562 17.333 70.546 17.3745 70.5381C17.4161 70.5303 17.4588 70.5308 17.5002 70.5395C17.5423 70.5466 17.5825 70.5622 17.6183 70.5855C17.6541 70.6088 17.6847 70.6392 17.7082 70.6749C17.7316 70.7106 17.7475 70.7508 17.7547 70.7928C17.762 70.8349 17.7604 70.8781 17.7502 70.9195C17.6502 71.4295 17.5602 71.9195 17.4702 72.4395L17.4002 72.8195C17.3959 72.8645 17.3819 72.908 17.359 72.947C17.3362 72.986 17.3051 73.0196 17.268 73.0453C17.2308 73.071 17.1885 73.0883 17.144 73.0959C17.0994 73.1036 17.0538 73.1014 17.0102 73.0895H17.0302ZM17.8002 69.2695H17.7302C17.689 69.2613 17.6498 69.2448 17.6151 69.221C17.5805 69.1972 17.551 69.1666 17.5286 69.131C17.5061 69.0955 17.4912 69.0558 17.4846 69.0142C17.478 68.9727 17.4798 68.9303 17.4901 68.8895C17.6401 68.2495 17.7902 67.6195 17.9602 66.9795C17.9717 66.9386 17.9912 66.9004 18.0176 66.8671C18.044 66.8338 18.0768 66.8061 18.114 66.7857C18.1513 66.7652 18.1922 66.7523 18.2345 66.7478C18.2767 66.7433 18.3195 66.7473 18.3602 66.7595C18.4009 66.77 18.4392 66.7884 18.4728 66.8137C18.5064 66.839 18.5346 66.8706 18.556 66.9069C18.5774 66.9431 18.5914 66.9832 18.5973 67.0248C18.6031 67.0664 18.6007 67.1088 18.5902 67.1495C18.4202 67.7795 18.2602 68.3995 18.1202 69.0295C18.0997 69.1025 18.0547 69.1662 17.9928 69.2099C17.9309 69.2536 17.8558 69.2747 17.7802 69.2695H17.8002ZM18.8002 65.5095H18.7102C18.6693 65.498 18.631 65.4785 18.5978 65.4521C18.5645 65.4257 18.5368 65.3929 18.5163 65.3557C18.4959 65.3184 18.483 65.2775 18.4785 65.2352C18.474 65.193 18.4779 65.1502 18.4901 65.1095C18.6801 64.4795 18.8802 63.8595 19.0902 63.2395C19.1037 63.1993 19.125 63.1621 19.153 63.1302C19.1811 63.0983 19.2151 63.0723 19.2533 63.0536C19.2914 63.035 19.333 63.0242 19.3753 63.0218C19.4177 63.0194 19.4601 63.0254 19.5002 63.0395C19.5404 63.053 19.5776 63.0744 19.6095 63.1024C19.6414 63.1304 19.6675 63.1645 19.6861 63.2026C19.7047 63.2408 19.7155 63.2823 19.7179 63.3247C19.7204 63.3671 19.7143 63.4095 19.7002 63.4495C19.4902 64.0595 19.3002 64.6795 19.1102 65.2995C19.0866 65.3643 19.0427 65.4198 18.985 65.4576C18.9274 65.4955 18.859 65.5137 18.7902 65.5095H18.8002ZM20.0502 61.8095C20.0141 61.8188 19.9762 61.8188 19.9402 61.8095C19.8607 61.7802 19.796 61.7207 19.7604 61.6438C19.7248 61.5669 19.7211 61.4791 19.7502 61.3995C19.9802 60.7895 20.2202 60.1795 20.4802 59.5795C20.4956 59.5399 20.5187 59.5037 20.5483 59.4731C20.5779 59.4425 20.6133 59.4181 20.6524 59.4013C20.6915 59.3846 20.7335 59.3758 20.7761 59.3755C20.8186 59.3752 20.8608 59.3834 20.9002 59.3995C20.939 59.4159 20.9741 59.4398 21.0036 59.4698C21.0332 59.4997 21.0565 59.5353 21.0723 59.5743C21.0881 59.6133 21.096 59.655 21.0957 59.6971C21.0953 59.7392 21.0866 59.7808 21.0702 59.8195C20.8202 60.4195 20.5802 61.0195 20.3602 61.6295C20.3307 61.6879 20.2845 61.7361 20.2275 61.7681C20.1705 61.8002 20.1054 61.8146 20.0402 61.8095H20.0502ZM21.5202 58.2695C21.474 58.279 21.4264 58.279 21.3802 58.2695C21.3029 58.2326 21.2431 58.1671 21.2132 58.0869C21.1834 58.0067 21.1859 57.918 21.2202 57.8395C21.5002 57.2495 21.7802 56.6595 22.0802 56.0695C22.1205 55.9958 22.1875 55.9403 22.2674 55.9143C22.3473 55.8883 22.4341 55.8937 22.5102 55.9295C22.5882 55.9683 22.6477 56.0362 22.6758 56.1186C22.7039 56.2011 22.6983 56.2912 22.6602 56.3695C22.3602 56.9395 22.0802 57.5195 21.8102 58.1095C21.7819 58.1609 21.7397 58.2032 21.6883 58.2315C21.637 58.2598 21.5787 58.273 21.5202 58.2695ZM23.2802 54.7895C23.2311 54.8032 23.1792 54.8032 23.1302 54.7895C23.0923 54.7696 23.0588 54.7423 23.0317 54.7093C23.0046 54.6762 22.9844 54.638 22.9723 54.597C22.9601 54.556 22.9564 54.5129 22.9612 54.4704C22.966 54.4279 22.9792 54.3868 23.0002 54.3495C23.3202 53.7795 23.6502 53.2095 24.0002 52.6595C24.0208 52.6223 24.0488 52.5897 24.0826 52.5638C24.1163 52.5379 24.155 52.5192 24.1963 52.5088C24.2375 52.4985 24.2805 52.4968 24.3224 52.5038C24.3644 52.5108 24.4045 52.5264 24.4402 52.5495C24.4763 52.5711 24.5079 52.5997 24.5331 52.6335C24.5582 52.6673 24.5764 52.7058 24.5866 52.7467C24.5968 52.7876 24.5989 52.8301 24.5926 52.8717C24.5864 52.9134 24.572 52.9534 24.5502 52.9895C24.2102 53.5395 23.8902 54.0995 23.5502 54.6695C23.5173 54.6972 23.4789 54.7177 23.4375 54.7298C23.3962 54.7418 23.3528 54.7452 23.3102 54.7395L23.2802 54.7895ZM25.2802 51.4595C25.2215 51.4773 25.1589 51.4773 25.1002 51.4595C25.0643 51.4363 25.0333 51.4061 25.0093 51.3707C24.9852 51.3353 24.9685 51.2955 24.9601 51.2535C24.9517 51.2116 24.9518 51.1684 24.9604 51.1265C24.969 51.0846 24.9859 51.0448 25.0102 51.0095C25.3802 50.4695 25.7502 49.9295 26.1402 49.3995C26.1918 49.3323 26.2674 49.2875 26.3512 49.2745C26.435 49.2614 26.5205 49.2811 26.5902 49.3295C26.6574 49.3812 26.7022 49.4567 26.7152 49.5405C26.7283 49.6243 26.7086 49.7099 26.6602 49.7795C26.2802 50.2995 25.9102 50.8295 25.5502 51.3695C25.4869 51.4065 25.4127 51.4207 25.3402 51.4095L25.2802 51.4595ZM69.2802 49.2495H68.8702C68.8281 49.247 68.787 49.2362 68.7491 49.2177C68.7113 49.1992 68.6774 49.1734 68.6496 49.1418C68.6217 49.1102 68.6003 49.0735 68.5867 49.0336C68.5731 48.9937 68.5675 48.9516 68.5702 48.9095C68.5713 48.867 68.5813 48.8252 68.5993 48.7867C68.6173 48.7482 68.6431 48.7137 68.675 48.6856C68.7069 48.6575 68.7442 48.6362 68.7846 48.6231C68.8251 48.61 68.8679 48.6054 68.9102 48.6095C69.2927 48.6446 69.6776 48.6446 70.0602 48.6095C70.2894 48.5807 70.5165 48.5373 70.7401 48.4795C70.8237 48.458 70.9123 48.47 70.987 48.513C71.0618 48.556 71.1168 48.6265 71.1402 48.7095C71.1506 48.7509 71.1525 48.794 71.146 48.8361C71.1395 48.8783 71.1247 48.9187 71.1023 48.9551C71.08 48.9914 71.0506 49.0229 71.0158 49.0477C70.9811 49.0725 70.9418 49.0901 70.9002 49.0995C70.6478 49.1696 70.3904 49.2198 70.1302 49.2495C69.8828 49.2446 69.6359 49.228 69.3902 49.1995L69.2802 49.2495ZM66.9802 48.8595H66.8802C66.2305 48.6314 65.6251 48.2931 65.0902 47.8595C65.0303 47.7979 64.9968 47.7154 64.9968 47.6295C64.9968 47.5436 65.0303 47.4611 65.0902 47.3995C65.12 47.3687 65.1558 47.3442 65.1953 47.3274C65.2348 47.3107 65.2772 47.302 65.3202 47.302C65.3631 47.302 65.4056 47.3107 65.4451 47.3274C65.4846 47.3442 65.5204 47.3687 65.5502 47.3995C66.028 47.7812 66.5651 48.0818 67.1402 48.2895C67.1804 48.303 67.2176 48.3244 67.2495 48.3524C67.2814 48.3804 67.3075 48.4145 67.3261 48.4526C67.3447 48.4908 67.3555 48.5323 67.3579 48.5747C67.3604 48.617 67.3543 48.6595 67.3402 48.6995C67.3088 48.7346 67.2702 48.7626 67.2271 48.7816C67.184 48.8006 67.1373 48.8101 67.0902 48.8095L66.9802 48.8595ZM27.5302 48.3195C27.4574 48.3204 27.3865 48.2956 27.3302 48.2495C27.2703 48.1879 27.2368 48.1054 27.2368 48.0195C27.2368 47.9336 27.2703 47.8511 27.3302 47.7895C27.7402 47.2795 28.1702 46.7895 28.5902 46.2895C28.6518 46.2297 28.7343 46.1962 28.8202 46.1962C28.9061 46.1962 28.9886 46.2297 29.0502 46.2895C29.1101 46.3511 29.1435 46.4336 29.1435 46.5195C29.1435 46.6054 29.1101 46.6879 29.0502 46.7495C28.6302 47.2295 28.2102 47.7495 27.8102 48.2295C27.7579 48.2574 27.6994 48.2712 27.6402 48.2695L27.5302 48.3195ZM72.5902 48.2695C72.5375 48.268 72.4859 48.2546 72.4392 48.2304C72.3924 48.2062 72.3517 48.1717 72.3202 48.1295C72.2748 48.0563 72.2599 47.9683 72.2786 47.8842C72.2973 47.8001 72.3481 47.7267 72.4202 47.6795C72.936 47.3369 73.4035 46.9266 73.8102 46.4595C73.8701 46.4003 73.9509 46.3671 74.0352 46.3671C74.1194 46.3671 74.2003 46.4003 74.2602 46.4595C74.32 46.5211 74.3535 46.6036 74.3535 46.6895C74.3535 46.7754 74.32 46.8579 74.2602 46.9195C73.8166 47.4368 73.3014 47.8881 72.7302 48.2595C72.7204 48.2635 72.7104 48.2668 72.7002 48.2695H72.5902ZM64.0602 46.4195C64.0027 46.418 63.9467 46.4015 63.8976 46.3717C63.8485 46.3419 63.808 46.2998 63.7802 46.2495C63.45 45.6268 63.2365 44.949 63.1502 44.2495C63.1446 44.2075 63.1474 44.1647 63.1585 44.1237C63.1696 44.0828 63.1888 44.0444 63.2148 44.0109C63.2409 43.9774 63.2733 43.9494 63.3103 43.9286C63.3473 43.9078 63.388 43.8945 63.4301 43.8895C63.5136 43.8781 63.5982 43.9 63.6656 43.9506C63.733 44.0011 63.7778 44.0762 63.7902 44.1595C63.8731 44.7666 64.0591 45.3551 64.3402 45.8995C64.3611 45.9368 64.3744 45.9779 64.3792 46.0204C64.384 46.0629 64.3802 46.106 64.3681 46.147C64.356 46.188 64.3358 46.2262 64.3086 46.2592C64.2815 46.2923 64.248 46.3196 64.2102 46.3395C64.1975 46.3503 64.1841 46.3603 64.1702 46.3695L64.0602 46.4195ZM30.1102 45.4195C30.0248 45.4204 29.9423 45.3882 29.8802 45.3295C29.8203 45.2679 29.7868 45.1854 29.7868 45.0995C29.7868 45.0136 29.8203 44.9311 29.8802 44.8695C30.3402 44.3995 30.8102 43.9395 31.2802 43.4895C31.3418 43.4297 31.4243 43.3962 31.5102 43.3962C31.5961 43.3962 31.6786 43.4297 31.7401 43.4895C31.7994 43.5494 31.8326 43.6303 31.8326 43.7145C31.8326 43.7988 31.7994 43.8796 31.7401 43.9395C31.2801 44.3795 30.8202 44.8395 30.3702 45.2995C30.3245 45.3258 30.2728 45.3396 30.2202 45.3395L30.1102 45.4195ZM75.1102 45.4195C75.0606 45.429 75.0097 45.429 74.9602 45.4195C74.8857 45.3773 74.83 45.3085 74.8041 45.2269C74.7781 45.1454 74.7838 45.057 74.8202 44.9795C75.1018 44.423 75.3069 43.831 75.4301 43.2195C75.4395 43.1779 75.4572 43.1386 75.482 43.1039C75.5068 43.0692 75.5383 43.0398 75.5746 43.0174C75.611 42.995 75.6514 42.9802 75.6936 42.9737C75.7357 42.9672 75.7788 42.9691 75.8202 42.9795C75.8616 42.9879 75.9011 43.0044 75.9361 43.028C75.9712 43.0517 76.0012 43.082 76.0244 43.1174C76.0477 43.1527 76.0637 43.1923 76.0716 43.2339C76.0794 43.2755 76.0789 43.3181 76.0702 43.3595C75.9251 44.021 75.7001 44.6624 75.4002 45.2695C75.352 45.2997 75.2969 45.3169 75.2401 45.3195L75.1102 45.4195ZM32.9202 42.7695C32.8747 42.7693 32.8297 42.7594 32.7883 42.7404C32.7469 42.7215 32.71 42.6939 32.6801 42.6595C32.6203 42.5979 32.5868 42.5154 32.5868 42.4295C32.5868 42.3436 32.6203 42.2611 32.6801 42.1995L33.2802 41.6995L34.2102 40.9695C34.2793 40.917 34.3664 40.8938 34.4525 40.9051C34.5386 40.9163 34.6168 40.961 34.6702 41.0295C34.7197 41.098 34.741 41.1828 34.7298 41.2665C34.7187 41.3502 34.6759 41.4264 34.6102 41.4795L33.6902 42.1995L33.1002 42.6995C33.0826 42.6911 33.0659 42.6811 33.0502 42.6695L32.9202 42.7695ZM63.4402 42.6795C63.3543 42.6695 63.2758 42.6261 63.2216 42.5588C63.1674 42.4915 63.1417 42.4056 63.1502 42.3195C63.2265 41.6411 63.3671 40.9714 63.5702 40.3195C63.5817 40.2786 63.6012 40.2404 63.6276 40.2071C63.654 40.1738 63.6868 40.1462 63.724 40.1257C63.7613 40.1052 63.8022 40.0923 63.8445 40.0878C63.8867 40.0833 63.9295 40.0873 63.9702 40.0995C64.011 40.1108 64.049 40.1304 64.0819 40.157C64.1149 40.1836 64.142 40.2166 64.1617 40.2541C64.1813 40.2916 64.1931 40.3327 64.1963 40.3749C64.1995 40.4171 64.194 40.4595 64.1801 40.4995C63.9989 41.1043 63.8685 41.7231 63.7902 42.3495C63.7768 42.4037 63.7494 42.4535 63.7108 42.4938C63.6722 42.5342 63.6237 42.5637 63.5702 42.5795L63.4402 42.6795ZM75.8902 41.6795C75.8087 41.6797 75.7302 41.6487 75.6707 41.593C75.6112 41.5372 75.5753 41.4609 75.5702 41.3795C75.5241 40.7646 75.3824 40.1607 75.1502 39.5895C75.1337 39.5508 75.125 39.5092 75.1247 39.4671C75.1243 39.425 75.1323 39.3833 75.148 39.3443C75.1638 39.3053 75.1872 39.2697 75.2167 39.2397C75.2462 39.2098 75.2814 39.1859 75.3202 39.1695C75.3589 39.1531 75.4005 39.1444 75.4426 39.144C75.4847 39.1437 75.5265 39.1516 75.5655 39.1674C75.6045 39.1832 75.64 39.2065 75.67 39.2361C75.6999 39.2656 75.7238 39.3008 75.7401 39.3395C76.0052 39.976 76.164 40.6516 76.2102 41.3395C76.2143 41.3824 76.2097 41.4256 76.1968 41.4666C76.1838 41.5076 76.1626 41.5456 76.1346 41.5783C76.1066 41.611 76.0723 41.6377 76.0337 41.6568C75.9952 41.6759 75.9532 41.6871 75.9102 41.6895L75.8902 41.6795ZM36.1502 40.2695C36.0971 40.2704 36.0446 40.2581 35.9975 40.2337C35.9503 40.2092 35.91 40.1734 35.8802 40.1295C35.8328 40.0587 35.8148 39.9723 35.8297 39.8884C35.8446 39.8046 35.8913 39.7297 35.9602 39.6795C36.5002 39.3095 37.0602 38.9495 37.6102 38.6095C37.6846 38.5651 37.7735 38.5517 37.8577 38.5723C37.9419 38.5929 38.0146 38.6458 38.0602 38.7195C38.0819 38.7556 38.0963 38.7956 38.1026 38.8373C38.1088 38.879 38.1068 38.9215 38.0966 38.9624C38.0864 39.0033 38.0682 39.0417 38.0431 39.0756C38.0179 39.1094 37.9864 39.1379 37.9502 39.1595C37.4035 39.4995 36.8635 39.8495 36.3302 40.2095C36.2776 40.2473 36.2149 40.2682 36.1502 40.2695ZM64.6502 38.8195C64.6074 38.8297 64.5629 38.8297 64.5202 38.8195C64.4412 38.7844 64.3791 38.7197 64.3473 38.6393C64.3155 38.5589 64.3165 38.4692 64.3502 38.3895C64.6002 37.8195 64.8902 37.2195 65.2202 36.6195C65.2401 36.5817 65.2674 36.5482 65.3004 36.5211C65.3335 36.4939 65.3717 36.4737 65.4127 36.4616C65.4537 36.4495 65.4968 36.4457 65.5393 36.4505C65.5818 36.4553 65.6229 36.4686 65.6602 36.4895C65.7347 36.5317 65.7899 36.6012 65.8141 36.6833C65.8384 36.7654 65.8298 36.8537 65.7902 36.9295C65.4702 37.5095 65.1802 38.0895 64.9402 38.6495C64.9167 38.7076 64.8767 38.7575 64.8252 38.793C64.7736 38.8286 64.7128 38.8482 64.6502 38.8495V38.8195ZM39.5202 38.2695C39.4608 38.2709 39.4023 38.2557 39.351 38.2257C39.2998 38.1957 39.258 38.152 39.2302 38.0995C39.1906 38.0236 39.182 37.9353 39.2062 37.8532C39.2305 37.7711 39.2857 37.7017 39.3602 37.6595C39.9302 37.3495 40.5202 37.0495 41.1102 36.7595C41.1482 36.7409 41.1896 36.7299 41.2318 36.7274C41.2741 36.7248 41.3165 36.7307 41.3565 36.7447C41.3965 36.7586 41.4334 36.7804 41.4649 36.8087C41.4964 36.837 41.522 36.8713 41.5402 36.9095C41.5589 36.9476 41.5697 36.9889 41.5723 37.0312C41.5749 37.0735 41.569 37.1159 41.555 37.1559C41.5411 37.1959 41.5193 37.2327 41.491 37.2642C41.4627 37.2957 41.4284 37.3214 41.3902 37.3395C40.8102 37.6195 40.2302 37.9195 39.6702 38.2295C39.625 38.2567 39.5729 38.2706 39.5202 38.2695ZM74.6002 38.0195C74.5523 38.0189 74.5051 38.0078 74.4619 37.9871C74.4188 37.9663 74.3807 37.9365 74.3502 37.8995C73.9459 37.4266 73.4897 37.0005 72.9901 36.6295C72.9546 36.6057 72.9245 36.5747 72.9015 36.5386C72.8786 36.5025 72.8633 36.4621 72.8567 36.4199C72.8501 36.3776 72.8524 36.3344 72.8633 36.2931C72.8742 36.2517 72.8936 36.213 72.9202 36.1795C72.9441 36.144 72.975 36.1138 73.0111 36.0909C73.0472 36.0679 73.0876 36.0527 73.1299 36.0461C73.1721 36.0395 73.2153 36.0418 73.2566 36.0527C73.298 36.0636 73.3366 36.0829 73.3702 36.1095C73.9144 36.5117 74.411 36.9747 74.8502 37.4895C74.9071 37.5506 74.9388 37.631 74.9388 37.7145C74.9388 37.798 74.9071 37.8785 74.8502 37.9395C74.806 37.9789 74.7524 38.0061 74.6945 38.0183C74.6366 38.0306 74.5765 38.0276 74.5202 38.0095L74.6002 38.0195ZM43.0202 36.5695C42.9567 36.5665 42.8953 36.5464 42.8424 36.5111C42.7896 36.4759 42.7473 36.427 42.7202 36.3695C42.7037 36.3308 42.695 36.2892 42.6947 36.2471C42.6943 36.205 42.7023 36.1633 42.7181 36.1243C42.7338 36.0853 42.7572 36.0497 42.7867 36.0197C42.8163 35.9898 42.8514 35.9659 42.8902 35.9495C43.5002 35.6895 44.1102 35.4495 44.7202 35.2195C44.8011 35.1901 44.8904 35.1935 44.9688 35.229C45.0473 35.2645 45.1088 35.3293 45.1402 35.4095C45.1691 35.4918 45.1642 35.5821 45.1267 35.6608C45.0893 35.7395 45.0222 35.8001 44.9402 35.8295C44.3402 36.0495 43.7402 36.2895 43.1502 36.5395C43.0935 36.564 43.0308 36.5709 42.9702 36.5595L43.0202 36.5695ZM71.5102 35.6895C71.4646 35.7041 71.4157 35.7041 71.3702 35.6895C70.7976 35.4134 70.2101 35.1697 69.6102 34.9595C69.5699 34.946 69.5327 34.9247 69.5008 34.8967C69.4689 34.8687 69.4429 34.8346 69.4243 34.7964C69.4057 34.7583 69.3949 34.7168 69.3924 34.6744C69.39 34.632 69.396 34.5896 69.4102 34.5495C69.4237 34.5093 69.4451 34.4721 69.4731 34.4402C69.5011 34.4083 69.5351 34.3823 69.5733 34.3636C69.6114 34.345 69.6529 34.3342 69.6953 34.3318C69.7377 34.3294 69.7801 34.3354 69.8202 34.3495C70.4474 34.5679 71.0617 34.8216 71.6602 35.1095C71.7364 35.15 71.7937 35.2187 71.8199 35.301C71.8461 35.3832 71.839 35.4724 71.8002 35.5495C71.7635 35.6032 71.7112 35.6443 71.6505 35.6676C71.5897 35.6908 71.5233 35.695 71.4602 35.6795L71.5102 35.6895ZM66.5102 35.4195C66.4494 35.4233 66.3892 35.4056 66.3402 35.3695C66.3038 35.3481 66.2721 35.3194 66.2472 35.2853C66.2222 35.2512 66.2046 35.2123 66.1952 35.1711C66.1859 35.1299 66.185 35.0872 66.1927 35.0457C66.2005 35.0041 66.2166 34.9646 66.2401 34.9295C66.4001 34.6695 66.5701 34.4195 66.7401 34.1495L65.8502 33.9695C65.7667 33.9549 65.6924 33.9077 65.6437 33.8383C65.5949 33.7689 65.5757 33.6831 65.5902 33.5995C65.5974 33.5572 65.613 33.5167 65.6361 33.4805C65.6593 33.4443 65.6895 33.4131 65.725 33.3889C65.7605 33.3646 65.8004 33.3477 65.8426 33.3393C65.8847 33.3308 65.9281 33.3309 65.9702 33.3395C66.3602 33.4095 66.7502 33.4895 67.1302 33.5795L67.3302 33.2995C67.3542 33.2644 67.385 33.2344 67.4207 33.2113C67.4565 33.1882 67.4965 33.1725 67.5384 33.165C67.5803 33.1576 67.6232 33.1585 67.6648 33.1679C67.7063 33.1773 67.7455 33.1948 67.7802 33.2195C67.8153 33.2436 67.8453 33.2743 67.8684 33.3101C67.8915 33.3458 67.9073 33.3858 67.9147 33.4277C67.9222 33.4696 67.9211 33.5126 67.9118 33.5541C67.9024 33.5956 67.8849 33.6349 67.8602 33.6695L67.8102 33.7395H67.8902C67.9736 33.763 68.045 33.8175 68.0896 33.8919C68.1342 33.9662 68.1487 34.0548 68.1302 34.1395C68.1046 34.2211 68.0493 34.2901 67.9752 34.3328C67.9011 34.3754 67.8136 34.3885 67.7302 34.3695L67.4202 34.2995C67.1902 34.6195 66.9802 34.9495 66.7802 35.2995C66.7486 35.3371 66.7086 35.3667 66.6634 35.3858C66.6182 35.405 66.5691 35.4131 66.5202 35.4095L66.5102 35.4195ZM46.6502 35.2095C46.5814 35.2125 46.5136 35.1925 46.4575 35.1526C46.4014 35.1128 46.3601 35.0554 46.3402 34.9895C46.3148 34.9073 46.3226 34.8184 46.3618 34.7418C46.401 34.6652 46.4687 34.607 46.5502 34.5795C47.1702 34.3895 47.8102 34.1995 48.4402 34.0395C48.4809 34.0275 48.5236 34.0241 48.5658 34.0293C48.6079 34.0345 48.6485 34.0484 48.6851 34.0699C48.7217 34.0915 48.7534 34.1203 48.7784 34.1547C48.8033 34.189 48.8209 34.2281 48.8302 34.2695C48.8407 34.3102 48.8431 34.3526 48.8373 34.3943C48.8314 34.4359 48.8174 34.476 48.796 34.5122C48.7746 34.5484 48.7463 34.5801 48.7127 34.6053C48.6791 34.6306 48.6409 34.6491 48.6002 34.6595C47.9802 34.8195 47.3601 35.0095 46.7401 35.1995L46.6502 35.2095ZM50.4102 34.2095C50.3359 34.2105 50.2638 34.1848 50.2069 34.1371C50.15 34.0894 50.1122 34.0228 50.1002 33.9495C50.0914 33.9081 50.0909 33.8654 50.0988 33.8239C50.1066 33.7823 50.1227 33.7427 50.1459 33.7074C50.1692 33.672 50.1992 33.6417 50.2342 33.618C50.2693 33.5944 50.3087 33.5779 50.3502 33.5695C50.9902 33.4295 51.6402 33.3095 52.2802 33.2095C52.3637 33.195 52.4496 33.2142 52.519 33.263C52.5883 33.3117 52.6355 33.386 52.6502 33.4695C52.6588 33.5118 52.6585 33.5553 52.6493 33.5974C52.6401 33.6396 52.6222 33.6793 52.5968 33.7141C52.5714 33.7489 52.539 33.7781 52.5017 33.7997C52.4644 33.8212 52.423 33.8348 52.3802 33.8395C51.7502 33.9495 51.1102 34.0695 50.4802 34.1995L50.4102 34.2095ZM63.9802 33.6595C63.3502 33.5695 62.7002 33.4995 62.0602 33.4495C61.9744 33.4419 61.895 33.401 61.839 33.3356C61.7829 33.2702 61.7546 33.1855 61.7602 33.0995C61.7639 33.0574 61.776 33.0165 61.7957 32.9791C61.8154 32.9417 61.8422 32.9086 61.8747 32.8816C61.9073 32.8546 61.9449 32.8344 61.9853 32.822C62.0257 32.8097 62.0681 32.8054 62.1102 32.8095C62.7602 32.8095 63.4202 32.9295 64.1102 33.0195C64.152 33.0244 64.1924 33.0377 64.2289 33.0587C64.2654 33.0796 64.2973 33.1078 64.3226 33.1415C64.3479 33.1752 64.366 33.2136 64.3759 33.2546C64.3858 33.2955 64.3872 33.338 64.3802 33.3795C64.3766 33.4281 64.3619 33.4751 64.3374 33.5172C64.3128 33.5592 64.2791 33.5951 64.2386 33.6221C64.1981 33.6491 64.1519 33.6665 64.1037 33.673C64.0554 33.6795 64.0064 33.6749 63.9602 33.6595H63.9802ZM54.2602 33.5795C54.1802 33.5799 54.1031 33.5503 54.0439 33.4966C53.9846 33.443 53.9477 33.3691 53.9402 33.2895C53.9317 33.2061 53.9563 33.1228 54.0086 33.0573C54.061 32.9919 54.137 32.9496 54.2202 32.9395C54.8702 32.8595 55.5302 32.7995 56.2202 32.7595C56.2622 32.7568 56.3044 32.7624 56.3443 32.7761C56.3841 32.7897 56.4209 32.8111 56.4525 32.8389C56.4841 32.8668 56.5099 32.9006 56.5284 32.9385C56.5468 32.9763 56.5576 33.0175 56.5602 33.0595C56.5643 33.1019 56.5597 33.1446 56.5466 33.1851C56.5335 33.2255 56.5122 33.2628 56.4841 33.2947C56.456 33.3266 56.4216 33.3524 56.383 33.3704C56.3445 33.3884 56.3027 33.3984 56.2602 33.3995C55.6202 33.4495 54.9702 33.4995 54.3402 33.5795H54.2602ZM60.1002 33.3395C59.4502 33.3395 58.8102 33.3395 58.1602 33.3395C58.1186 33.3409 58.0773 33.3339 58.0385 33.3189C57.9997 33.3039 57.9643 33.2813 57.9345 33.2523C57.9046 33.2234 57.8809 33.1888 57.8647 33.1505C57.8485 33.1122 57.8402 33.0711 57.8402 33.0295C57.8388 32.9875 57.8458 32.9456 57.8607 32.9063C57.8756 32.8669 57.898 32.8309 57.9268 32.8003C57.9556 32.7696 57.9901 32.7449 58.0285 32.7277C58.0668 32.7104 58.1082 32.7008 58.1502 32.6995C58.8102 32.6995 59.4602 32.6995 60.1502 32.6995C60.1931 32.7008 60.2353 32.7107 60.2743 32.7286C60.3133 32.7465 60.3484 32.7721 60.3773 32.8038C60.4062 32.8355 60.4284 32.8727 60.4427 32.9132C60.4569 32.9537 60.4629 32.9967 60.4602 33.0395C60.4581 33.0854 60.4462 33.1303 60.4253 33.1712C60.4043 33.2121 60.3748 33.248 60.3388 33.2764C60.3027 33.3049 60.261 33.3253 60.2163 33.3362C60.1717 33.347 60.1253 33.3482 60.0802 33.3395H60.1002ZM68.7502 32.2295C68.6773 32.2304 68.6066 32.2056 68.5502 32.1595C68.491 32.0996 68.4577 32.0188 68.4577 31.9345C68.4577 31.8503 68.491 31.7694 68.5502 31.7095C68.9502 31.1895 69.3702 30.7095 69.7902 30.1795C69.8501 30.1203 69.9309 30.0871 70.0152 30.0871C70.0994 30.0871 70.1802 30.1203 70.2401 30.1795C70.3 30.2411 70.3335 30.3237 70.3335 30.4095C70.3335 30.4954 70.3 30.5779 70.2401 30.6395C69.8301 31.1195 69.4102 31.6395 69.0202 32.1295C68.9885 32.1764 68.945 32.2141 68.8941 32.2387C68.8431 32.2633 68.7866 32.2739 68.7302 32.2695L68.7502 32.2295ZM71.2902 29.2295C71.2494 29.2297 71.2089 29.2219 71.1712 29.2065C71.1334 29.191 71.0991 29.1683 71.0702 29.1395C71.0396 29.1106 71.0153 29.0757 70.9986 29.037C70.982 28.9983 70.9734 28.9566 70.9734 28.9145C70.9734 28.8724 70.982 28.8308 70.9986 28.7921C71.0153 28.7534 71.0396 28.7185 71.0702 28.6895C71.5202 28.2095 71.9902 27.7495 72.4702 27.3095C72.4992 27.279 72.534 27.2546 72.5727 27.238C72.6114 27.2214 72.6531 27.2128 72.6952 27.2128C72.7373 27.2128 72.779 27.2214 72.8177 27.238C72.8563 27.2546 72.8912 27.279 72.9202 27.3095C72.951 27.3394 72.9755 27.3751 72.9923 27.4146C73.009 27.4541 73.0177 27.4966 73.0177 27.5395C73.0177 27.5824 73.009 27.6249 72.9923 27.6644C72.9755 27.7039 72.951 27.7397 72.9202 27.7695C72.4502 28.1995 71.9902 28.6595 71.5402 29.1195C71.5139 29.1674 71.4746 29.2069 71.4268 29.2335C71.379 29.26 71.3247 29.2725 71.2702 29.2695L71.2902 29.2295ZM74.1402 26.5795C74.0456 26.5771 73.9558 26.5376 73.8902 26.4695C73.8303 26.4079 73.7968 26.3254 73.7968 26.2395C73.7968 26.1536 73.8303 26.0711 73.8902 26.0095C74.4002 25.5895 74.8902 25.1895 75.4502 24.8095C75.4848 24.7848 75.5241 24.7673 75.5656 24.7579C75.6071 24.7485 75.6501 24.7476 75.692 24.755C75.7339 24.7625 75.7739 24.7782 75.8096 24.8013C75.8454 24.8244 75.8762 24.8544 75.9002 24.8895C75.9254 24.9236 75.9436 24.9623 75.9537 25.0034C75.9638 25.0446 75.9657 25.0873 75.9592 25.1292C75.9527 25.171 75.938 25.2112 75.9158 25.2473C75.8937 25.2834 75.8645 25.3148 75.8302 25.3395C75.3102 25.7129 74.8002 26.1029 74.3002 26.5095C74.2549 26.5661 74.1912 26.605 74.1202 26.6195L74.1402 26.5795ZM77.3102 24.3195C77.2561 24.3193 77.2031 24.3055 77.1559 24.2793C77.1086 24.253 77.0689 24.2153 77.0402 24.1695C76.9948 24.0963 76.9799 24.0082 76.9986 23.9242C77.0173 23.8401 77.0681 23.7667 77.1402 23.7195C77.7002 23.3795 78.2802 23.0495 78.8602 22.7195C78.9373 22.6807 79.0265 22.6736 79.1087 22.6998C79.191 22.7259 79.2597 22.7833 79.3002 22.8595C79.3386 22.9351 79.3454 23.0229 79.3191 23.1035C79.2929 23.1841 79.2357 23.251 79.1602 23.2895C78.5902 23.5895 78.0302 23.9095 77.4802 24.2895C77.4548 24.3133 77.4249 24.3318 77.3922 24.3438C77.3596 24.3558 77.3249 24.3612 77.2902 24.3595L77.3102 24.3195ZM80.7702 22.5195C80.707 22.521 80.6448 22.5038 80.5914 22.47C80.538 22.4362 80.4958 22.3873 80.4702 22.3295C80.4537 22.2908 80.445 22.2492 80.4447 22.2071C80.4443 22.165 80.4523 22.1233 80.468 22.0843C80.4838 22.0452 80.5072 22.0097 80.5367 21.9797C80.5663 21.9498 80.6014 21.9259 80.6402 21.9095C81.2402 21.6495 81.8602 21.4095 82.4802 21.1895C82.5202 21.1754 82.5626 21.1694 82.605 21.1718C82.6474 21.1742 82.6889 21.185 82.7271 21.2036C82.7652 21.2223 82.7993 21.2483 82.8273 21.2802C82.8553 21.3121 82.8767 21.3493 82.8902 21.3895C82.9043 21.4296 82.9104 21.472 82.9079 21.5144C82.9055 21.5568 82.8947 21.5983 82.8761 21.6364C82.8575 21.6746 82.8314 21.7087 82.7995 21.7367C82.7676 21.7647 82.7304 21.786 82.6902 21.7995C82.0902 22.0095 81.4802 22.2495 80.9002 22.4995C80.8561 22.532 80.8045 22.5527 80.7502 22.5595L80.7702 22.5195ZM105.67 21.7195H105.6L103.7 21.3195C103.658 21.3123 103.617 21.2967 103.581 21.2736C103.545 21.2504 103.514 21.2202 103.49 21.1847C103.465 21.1493 103.448 21.1093 103.44 21.0671C103.431 21.025 103.431 20.9816 103.44 20.9395C103.459 20.8571 103.509 20.7851 103.58 20.7386C103.651 20.6921 103.737 20.6745 103.82 20.6895C104.46 20.8095 105.1 20.9495 105.74 21.0895C105.823 21.1087 105.895 21.1589 105.941 21.2296C105.988 21.3003 106.005 21.3862 105.99 21.4695C105.978 21.5508 105.937 21.6249 105.874 21.6782C105.812 21.7315 105.732 21.7604 105.65 21.7595L105.67 21.7195ZM84.4502 21.2395C84.3775 21.2418 84.3062 21.2193 84.2481 21.1757C84.1899 21.1321 84.1483 21.0699 84.1302 20.9995C84.1196 20.9588 84.1173 20.9164 84.1231 20.8748C84.129 20.8331 84.143 20.7931 84.1643 20.7569C84.1857 20.7206 84.214 20.689 84.2476 20.6637C84.2812 20.6384 84.3195 20.62 84.3602 20.6095C84.9902 20.4395 85.6302 20.2795 86.2802 20.1495C86.3649 20.1348 86.452 20.1537 86.523 20.2023C86.594 20.2509 86.6432 20.3252 86.6602 20.4095C86.6752 20.4929 86.6576 20.5787 86.6111 20.6495C86.5646 20.7202 86.4926 20.7703 86.4102 20.7895C85.7702 20.9095 85.1402 21.0595 84.5302 21.2295L84.4502 21.2395ZM101.85 20.9595H101.79C101.124 20.8462 100.483 20.7462 99.8701 20.6595C99.786 20.6448 99.7109 20.598 99.6606 20.529C99.6102 20.46 99.5886 20.3741 99.6002 20.2895C99.605 20.2477 99.6183 20.2073 99.6393 20.1708C99.6602 20.1343 99.6885 20.1024 99.7221 20.0771C99.7558 20.0519 99.7943 20.0337 99.8352 20.0238C99.8762 20.0139 99.9187 20.0125 99.9602 20.0195C100.61 20.1095 101.25 20.2095 101.9 20.3195C101.984 20.3342 102.058 20.3814 102.107 20.4507C102.155 20.5201 102.175 20.606 102.16 20.6895C102.16 20.732 102.152 20.774 102.135 20.813C102.118 20.8519 102.093 20.887 102.062 20.9161C102.031 20.9452 101.995 20.9676 101.955 20.9819C101.915 20.9963 101.873 21.0023 101.83 20.9995L101.85 20.9595ZM88.2602 20.4695C88.1824 20.4681 88.1076 20.4392 88.049 20.3879C87.9905 20.3367 87.9519 20.2664 87.9402 20.1895C87.9346 20.1475 87.9374 20.1047 87.9485 20.0637C87.9596 20.0228 87.9787 19.9844 88.0048 19.9509C88.0308 19.9174 88.0633 19.8894 88.1003 19.8686C88.1373 19.8477 88.178 19.8345 88.2202 19.8295C88.8602 19.7395 89.5202 19.6695 90.2202 19.6195C90.2617 19.6154 90.3036 19.6197 90.3434 19.6322C90.3832 19.6447 90.4201 19.6651 90.4519 19.6922C90.4836 19.7192 90.5096 19.7524 90.5282 19.7898C90.5468 19.8271 90.5577 19.8679 90.5602 19.9095C90.5643 19.9516 90.5601 19.994 90.5477 20.0345C90.5353 20.0749 90.5151 20.1124 90.4881 20.145C90.4612 20.1775 90.428 20.2044 90.3906 20.2241C90.3532 20.2437 90.3123 20.2558 90.2702 20.2595C89.6202 20.3095 88.9702 20.3795 88.3502 20.4695H88.2602ZM97.9901 20.4195C97.3501 20.3495 96.7001 20.2995 96.0602 20.2495C96.0181 20.247 95.977 20.2362 95.9391 20.2177C95.9013 20.1992 95.8674 20.1734 95.8396 20.1418C95.8117 20.1103 95.7903 20.0735 95.7767 20.0336C95.7631 19.9937 95.7575 19.9516 95.7602 19.9095C95.7627 19.8666 95.7738 19.8245 95.7929 19.786C95.812 19.7474 95.8387 19.7131 95.8714 19.6851C95.904 19.6571 95.942 19.636 95.9831 19.623C96.0241 19.61 96.0674 19.6054 96.1102 19.6095C96.7602 19.6095 97.4102 19.7095 98.1102 19.7795C98.1523 19.7833 98.1932 19.7953 98.2306 19.815C98.268 19.8347 98.3011 19.8616 98.3281 19.8941C98.3551 19.9266 98.3753 19.9642 98.3877 20.0046C98.4 20.045 98.4043 20.0875 98.4002 20.1295C98.4053 20.1834 98.3966 20.2378 98.3749 20.2874C98.3533 20.3371 98.3194 20.3804 98.2764 20.4134C98.2334 20.4464 98.1828 20.4679 98.1292 20.476C98.0757 20.484 98.021 20.4784 97.9702 20.4595L97.9901 20.4195ZM92.1502 20.1595C92.066 20.1597 91.985 20.1277 91.9236 20.07C91.8623 20.0124 91.8253 19.9335 91.8202 19.8495C91.8188 19.8067 91.8261 19.764 91.8416 19.724C91.8571 19.684 91.8805 19.6475 91.9103 19.6168C91.9402 19.586 91.9759 19.5615 92.0154 19.5448C92.0548 19.5281 92.0973 19.5195 92.1402 19.5195C92.7902 19.5195 93.4502 19.5195 94.1402 19.5195C94.183 19.5195 94.2255 19.5281 94.265 19.5448C94.3045 19.5615 94.3402 19.586 94.3701 19.6168C94.3999 19.6475 94.4233 19.684 94.4388 19.724C94.4542 19.764 94.4615 19.8067 94.4602 19.8495C94.4576 19.9326 94.4227 20.0115 94.363 20.0694C94.3033 20.1272 94.2233 20.1596 94.1402 20.1595H92.1902H92.1502Z" fill="#999999"/>
<path d="M142.11 94.13L144.93 95.35L156.2 87.49L159.2 89.15C161.61 90.59 163.95 90.69 165.07 90.05L165.3 90.16C167.04 90.92 168.07 90.24 168.42 89.42C168.77 88.6 168.57 87.42 166.83 86.64L166.6 86.54C166.39 85.54 165.48 83.86 161.93 82.87L158.66 81.82L156.66 68.23L153.84 67L151.65 79.59L143.59 76.83L142.37 73.6L140.13 72.77L139.97 75.77L139.17 75.7L138.44 77.37L139.04 77.96L136.92 80.16L139.06 81.23L142.24 79.91L149.77 83.91L142.11 94.13ZM142.32 79.18L139.12 80.51L138.12 79.99L140.06 77.99L139.33 77.25L139.67 76.46L140.67 76.55L140.82 73.75L141.91 74.15L143.13 77.39L152.25 80.5L154.42 67.99L156.11 68.72L158.06 82.36L161.75 83.54C165.19 84.49 165.87 86.03 165.97 86.86V87.07L166.17 87.14C166.297 87.1762 166.421 87.223 166.54 87.28C167.61 87.74 168.09 88.47 167.78 89.17C167.47 89.87 166.62 90.03 165.55 89.56C165.43 89.5114 165.313 89.4546 165.2 89.39L165.01 89.28L164.83 89.41C164.1 89.95 161.97 90.05 159.51 88.59L156.15 86.71L144.85 94.6L143.16 93.87L150.82 83.73L142.32 79.18Z" fill="#999999"/>
<defs>
<clipPath id="clip0_204_1198">
<rect width="145.698" height="145.698" fill="white" transform="matrix(-0.969736 0.244157 0.244157 0.969736 1818.71 0)"/>
</clipPath>
</defs>
</svg>
