<svg width="60" height="60" viewBox="0 0 60 60" fill="none" xmlns="http://www.w3.org/2000/svg">
<rect width="60" height="60" rx="3" fill="#FC747B"/>
<g clip-path="url(#clip0_204_1160)">
<path d="M29.9867 16.667C22.6267 16.667 16.6667 22.6403 16.6667 30.0003C16.6667 37.3603 22.6267 43.3337 29.9867 43.3337C37.3601 43.3337 43.3334 37.3603 43.3334 30.0003C43.3334 22.6403 37.3601 16.667 29.9867 16.667ZM39.2267 24.667H35.2934C34.8667 23.0003 34.2534 21.4003 33.4534 19.9203C35.9067 20.7603 37.9467 22.467 39.2267 24.667ZM30.0001 19.387C31.1067 20.987 31.9734 22.7603 32.5467 24.667H27.4534C28.0267 22.7603 28.8934 20.987 30.0001 19.387ZM19.6801 32.667C19.4667 31.8137 19.3334 30.9203 19.3334 30.0003C19.3334 29.0803 19.4667 28.187 19.6801 27.3337H24.1867C24.0801 28.2137 24.0001 29.0937 24.0001 30.0003C24.0001 30.907 24.0801 31.787 24.1867 32.667H19.6801ZM20.7734 35.3337H24.7067C25.1334 37.0003 25.7467 38.6003 26.5467 40.0803C24.0934 39.2403 22.0534 37.547 20.7734 35.3337ZM24.7067 24.667H20.7734C22.0534 22.4537 24.0934 20.7603 26.5467 19.9203C25.7467 21.4003 25.1334 23.0003 24.7067 24.667ZM30.0001 40.6137C28.8934 39.0137 28.0267 37.2403 27.4534 35.3337H32.5467C31.9734 37.2403 31.1067 39.0137 30.0001 40.6137ZM33.1201 32.667H26.8801C26.7601 31.787 26.6667 30.907 26.6667 30.0003C26.6667 29.0937 26.7601 28.2003 26.8801 27.3337H33.1201C33.2401 28.2003 33.3334 29.0937 33.3334 30.0003C33.3334 30.907 33.2401 31.787 33.1201 32.667ZM33.4534 40.0803C34.2534 38.6003 34.8667 37.0003 35.2934 35.3337H39.2267C37.9467 37.5337 35.9067 39.2403 33.4534 40.0803ZM35.8134 32.667C35.9201 31.787 36.0001 30.907 36.0001 30.0003C36.0001 29.0937 35.9201 28.2137 35.8134 27.3337H40.3201C40.5334 28.187 40.6667 29.0803 40.6667 30.0003C40.6667 30.9203 40.5334 31.8137 40.3201 32.667H35.8134Z" fill="white"/>
</g>
<defs>
<clipPath id="clip0_204_1160">
<rect width="32" height="32" fill="white" transform="translate(14 14)"/>
</clipPath>
</defs>
</svg>
