<svg width="337" height="199" viewBox="0 0 337 199" fill="none" xmlns="http://www.w3.org/2000/svg">
<path fill-rule="evenodd" clip-rule="evenodd" d="M247.391 100.824C248.472 97.1059 247.936 97.7772 254.547 96.2233C260.414 94.9791 258.379 96.8639 261.31 91.7296C263.9 87.0197 269.015 80.8659 270.962 77.2507C268.339 75.3228 253.758 72.4506 249.409 70.3274C250.022 69.3839 250.507 68.6222 251.198 67.6336C252.26 66.0695 251.909 66.2724 254.261 66.3341C259.355 66.3664 275.693 66.4431 278.728 66.1104C281.106 62.8356 287.022 53.4731 290.065 51.9577C291.503 51.2479 293.96 50.2978 294.553 52.3394C295.954 57.357 289.717 64.1588 286.066 69.2402C284.591 71.2837 285.056 70.8947 285.914 73.3726C286.773 76.0777 293.569 95.4449 293.314 96.7841C293.129 97.2526 291.112 99.9574 290.741 100.533C289.55 99.0779 288.358 97.3957 287.29 95.7488L280.708 86.356C279.781 84.7488 278.438 83.0326 277.309 81.6623C275.721 84.1192 274.045 86.3997 272.369 88.9073C264.058 101.313 263.922 96.2756 264.943 104.244C265.44 108.712 266.676 110.851 262.991 112.269C259.483 104.772 255.01 101.421 247.391 100.824ZM385.819 112.995C382.127 113.814 382.778 113.318 380.816 119.928C379.068 125.692 381.094 123.813 375.728 126.308C371.026 128.554 364.455 133.178 360.694 134.867C359.011 132.156 357.396 117.164 355.67 112.575C354.714 113.127 353.943 113.572 352.898 114.175C351.249 115.127 351.496 114.744 351.266 117.14C350.92 122.335 349.79 138.792 349.105 141.799C345.605 143.941 336.062 149.209 334.237 152.044C333.438 153.456 332.359 155.981 334.305 156.759C339.119 158.494 346.329 152.791 351.592 149.511C353.759 148.26 353.284 148.654 355.707 149.626C358.311 150.734 376.818 159.189 378.108 159.033C378.589 158.876 381.485 157.084 382.002 156.785C380.723 155.381 379.195 154.133 377.662 152.875L368.886 145.473C367.457 144.396 365.773 142.877 364.511 141.704C367.071 140.346 369.537 138.802 372.134 137.303C384.949 129.904 379.906 129.374 387.782 131.001C392.122 131.937 394.075 133.314 395.798 129.694C388.778 125.537 385.788 120.741 385.819 112.995ZM392.453 121.285C391.26 122.216 389.637 120.42 390.964 119.292L392.887 117.821C394.028 116.8 395.791 118.635 394.473 119.758L392.453 121.285ZM494.049 -127.502C493.918 -129.329 496.442 -129.353 496.556 -127.758L496.705 -126.304C496.784 -124.568 494.266 -124.534 494.234 -126.189L494.049 -127.502ZM494.825 -118.562C494.746 -120.298 497.212 -120.422 497.296 -118.676L497.471 -116.165C497.637 -114.48 495.119 -114.446 495.005 -116.04L494.825 -118.562ZM495.46 -108.468C495.346 -110.063 497.853 -110.318 497.931 -108.582L498.028 -106.026C498.142 -104.431 495.722 -104.227 495.504 -106.002L495.46 -108.468ZM495.727 -98.403C495.736 -100.19 498.271 -99.9924 498.251 -98.4271L498.259 -95.8203C498.25 -94.0335 495.803 -94.2816 495.829 -95.8369L495.727 -98.403ZM495.766 -88.3271C495.828 -90.0235 498.31 -89.9165 498.248 -88.2201L498.205 -85.7037C498.231 -84.058 495.661 -84.1143 495.722 -85.8107L495.766 -88.3271ZM495.499 -78.1951C495.525 -79.7503 498.043 -79.7844 497.982 -78.088L497.85 -75.5209C497.824 -73.9657 495.306 -73.9316 495.403 -75.7691L495.499 -78.1951ZM494.906 -68.2228C495.108 -69.8795 497.519 -69.4902 497.405 -67.8842L497.221 -65.4075C497.019 -63.7508 494.52 -64.0893 494.722 -65.746L494.906 -68.2228ZM494.007 -58.1944C494.209 -59.8511 496.62 -59.4618 496.428 -57.8107L496.156 -55.2833C495.954 -53.6266 493.491 -54.1063 493.745 -55.6726L494.007 -58.1944ZM492.837 -48.6123C493.362 -49.5051 494.721 -49.3385 495.153 -48.4095C495.548 -47.9278 495.531 -46.9667 494.968 -46.5213L494.791 -45.2272C494.537 -43.6609 492.038 -43.9994 492.318 -45.7012L492.337 -46.0739L491.944 -45.967C490.25 -45.6992 489.936 -48.2499 491.541 -48.467L492.837 -48.6123ZM491.043 -38.3083C491.466 -39.9861 493.806 -39.3145 493.48 -37.6931L493.022 -35.2857C492.654 -33.5332 490.258 -34.2795 490.637 -35.8105L491.043 -38.3083ZM489.003 -28.4518C489.345 -30.0689 491.854 -29.5088 491.44 -27.8367L490.895 -25.3786C490.553 -23.7615 488.131 -24.3723 488.457 -25.9937L489.003 -28.4518ZM486.631 -18.7652C487.185 -20.3976 489.551 -19.5002 489.033 -18.0089L488.435 -15.6412C487.933 -13.9183 485.567 -14.8157 485.945 -16.3468L486.631 -18.7652ZM483.891 -9.1072C484.367 -10.6946 486.759 -9.93264 486.293 -8.35091L485.519 -5.88177C485.053 -4.30004 482.599 -5.14674 483.153 -6.77918L483.891 -9.1072ZM480.783 0.295018C481.223 -1.15123 483.615 -0.389311 483.055 1.23309L482.229 3.61184C481.587 5.29501 479.292 4.11534 479.951 2.6637L480.783 0.295018ZM477.218 9.71928C477.912 8.12651 480.155 9.21578 479.496 10.6674L478.618 12.9557C477.924 14.5485 475.682 13.4593 476.34 12.0076L477.218 9.71928ZM473.363 18.8427C473.934 17.4418 476.3 18.3392 475.6 19.9219C475.25 20.7133 474.906 21.5147 474.503 22.2156C473.933 23.6166 471.567 22.7192 472.267 21.1364C472.607 20.3507 473.003 19.6397 473.363 18.8427ZM469.087 27.8471C469.834 26.3447 472.009 27.7005 471.289 29.0674L470.14 31.2707C469.394 32.7731 467.131 31.468 467.939 30.0504L469.087 27.8471ZM464.437 36.5856C465.148 35.2244 467.437 36.3939 466.603 37.947L465.314 40.1107C464.604 41.4719 462.315 40.3023 463.149 38.7492L464.437 36.5856ZM459.373 45.2151C460.347 43.7017 462.399 45.2494 461.548 46.5709L460.26 48.7345C459.321 50.1068 457.181 48.6099 458.032 47.2883L459.373 45.2151ZM454.012 53.5337C454.863 52.2122 457.038 53.568 456.151 55.0306C455.615 55.7019 455.213 56.4029 454.676 57.0742C453.826 58.3958 451.738 56.9892 452.677 55.617C453.079 54.916 453.615 54.2447 454.012 53.5337ZM448.334 61.6869C449.413 60.3544 451.289 62.0034 450.386 63.2346L448.911 65.2782C447.832 66.6107 445.91 64.8813 446.947 63.6798L448.334 61.6869ZM442.356 69.5449C443.346 68.2631 445.31 69.8614 444.32 71.1433L442.705 73.1472C441.802 74.3783 439.75 72.8307 440.829 71.4981L442.356 69.5449ZM436.049 77.2175C437.092 76.026 439.056 77.6244 437.925 78.8666C437.389 79.5379 436.847 80.1991 436.258 80.78C435.355 82.0112 433.391 80.4128 434.47 79.0802C435.012 78.419 435.513 77.8888 436.049 77.2175ZM429.452 84.5892C430.722 83.3867 432.381 85.2683 431.292 86.3794L429.573 88.2025C428.39 89.3542 426.643 87.5234 427.82 86.3615L429.452 84.5892ZM422.615 91.7504C423.793 90.5886 425.545 92.4295 424.368 93.5913L422.596 95.324C421.501 96.4251 419.667 94.6449 420.844 93.4831L422.615 91.7504ZM415.492 98.5951C416.588 97.4941 418.51 99.2235 417.297 100.526L415.386 102.219C414.068 103.342 412.517 101.264 413.721 100.328L415.492 98.5951ZM408.255 105.265C409.485 104.193 411.062 106.136 409.832 107.207L407.956 108.759C406.639 109.881 405.062 107.939 406.291 106.867L408.255 105.265ZM400.649 111.678C401.879 110.607 403.543 112.499 402.226 113.621L400.35 115.173C399.121 116.244 397.404 114.262 398.721 113.14L400.649 111.678ZM639.204 -141.073C640.295 -144.797 639.748 -144.12 646.407 -145.593C652.221 -146.928 650.238 -144.953 653.117 -150.177C655.76 -154.797 660.822 -161.041 662.769 -164.656C660.156 -166.59 645.565 -169.456 641.216 -171.579C641.829 -172.523 642.366 -173.194 643.057 -174.183C644.067 -175.837 643.716 -175.635 646.074 -175.563C651.168 -175.53 667.548 -175.358 670.541 -175.787C672.919 -179.061 678.835 -188.424 681.878 -189.939C683.316 -190.649 685.826 -191.509 686.419 -189.467C687.819 -184.449 681.582 -177.648 677.931 -172.566C676.456 -170.523 676.869 -171.002 677.727 -168.524C678.648 -165.734 685.382 -146.452 685.127 -145.113C685.02 -144.689 682.977 -141.849 682.554 -141.364C681.363 -142.819 680.213 -144.405 679.155 -146.058L672.521 -155.541C671.646 -157.058 670.251 -158.864 669.174 -160.144C667.54 -157.768 665.91 -155.407 664.182 -152.99C655.871 -140.584 655.822 -145.672 656.756 -137.653C657.253 -133.185 658.577 -131.096 654.804 -129.628C651.296 -137.125 646.817 -140.486 639.204 -141.073ZM646.804 -133.702C647.847 -134.893 646.147 -136.644 644.876 -135.441L643.297 -133.579C642.295 -132.518 643.954 -130.637 645.225 -131.839L646.804 -133.702ZM393.542 -51.4068C391.851 -51.7432 391.673 -49.2564 393.218 -48.9698L394.498 -48.7581C396.277 -48.4725 396.455 -50.9592 394.904 -51.2559L393.542 -51.4068ZM402.345 -49.9536C400.706 -50.1995 400.388 -47.7524 401.939 -47.4558L404.49 -47.0268C406.129 -46.7808 406.395 -49.3183 404.762 -49.5542L402.345 -49.9536ZM412.185 -48.5091C410.634 -48.8058 410.228 -46.308 411.913 -45.9817L414.412 -45.6432C415.998 -45.4876 416.404 -47.9854 414.678 -48.1806L412.185 -48.5091ZM422.101 -47.3369C420.375 -47.5322 420.373 -44.9198 421.917 -44.8602L424.452 -44.6628C426.178 -44.4675 426.174 -47.09 424.636 -47.1395L422.101 -47.3369ZM432.037 -46.5374C430.363 -46.6422 430.309 -44.1202 431.905 -43.9703L434.388 -43.8632C436.062 -43.7584 436.24 -46.2452 434.566 -46.35L432.037 -46.5374ZM441.946 -45.9637C440.412 -46.0289 440.228 -43.5521 441.99 -43.498L444.473 -43.391C446.007 -43.3258 446.191 -45.8026 444.516 -45.9074L441.946 -45.9637ZM451.968 -45.8034C450.171 -45.7164 450.433 -43.2561 451.977 -43.1966L454.495 -43.2306C456.205 -43.2669 456.03 -45.7779 454.399 -45.7868L451.968 -45.8034ZM461.834 -45.9142C460.176 -45.7875 460.438 -43.3272 462.008 -43.4032L464.532 -43.4272C466.19 -43.5539 466.015 -46.065 464.358 -45.9383L461.834 -45.9142ZM471.806 -46.4485C470.149 -46.3218 470.323 -43.8108 472.043 -43.8527L474.462 -44.0575C476.032 -44.1335 475.998 -46.6048 474.288 -46.5685L471.806 -46.4485ZM481.618 -47.2382C479.925 -46.9704 480.415 -44.5211 482.021 -44.7382L484.528 -44.9938C486.133 -45.2109 485.731 -47.7109 484.126 -47.4938L481.618 -47.2382ZM501.263 -50.0217C499.534 -49.6128 500.34 -47.2252 501.753 -47.5724L504.244 -48.0595C505.973 -48.4684 505.167 -50.856 503.754 -50.5088L501.263 -50.0217ZM510.946 -52.0494C509.392 -51.7419 510.023 -49.253 511.576 -49.5605L514.014 -50.138C515.609 -50.5765 514.979 -53.0655 513.384 -52.6269L510.946 -52.0494ZM520.508 -54.4895C519.094 -54.1423 519.491 -51.6524 521.226 -52.0513L523.612 -52.7192C525.377 -53.2692 524.349 -55.6357 522.894 -55.1574L520.508 -54.4895ZM529.997 -57.2359C528.454 -56.7069 529.348 -54.3701 530.803 -54.8483L533.225 -55.6574C534.767 -56.1863 533.961 -58.5739 532.429 -58.0505L529.997 -57.2359ZM539.328 -60.4805C537.874 -60.0023 538.592 -57.564 540.274 -58.0533C541.019 -58.363 541.905 -58.633 542.644 -58.9528C544.099 -59.431 543.381 -61.8693 541.698 -61.38C540.959 -61.0602 540.126 -60.6998 539.328 -60.4805ZM548.582 -64.0415C547.003 -63.3714 548.115 -61.04 549.553 -61.7498L551.789 -62.6789C553.367 -63.349 552.255 -65.6804 550.817 -64.9706L548.582 -64.0415ZM557.589 -68.0501C556.151 -67.3403 557.123 -65.0486 558.701 -65.7187L560.972 -66.7889C562.375 -67.3575 561.429 -69.7848 559.773 -69.0696L557.589 -68.0501ZM566.431 -72.3243C564.905 -71.5638 566.28 -69.3845 567.578 -70.134L569.797 -71.2946C571.323 -72.0551 570.036 -74.2851 568.65 -73.4849L566.431 -72.3243ZM575.114 -77.0967C573.728 -76.2966 574.928 -74.0158 576.402 -74.8668C577.095 -75.2668 577.876 -75.7177 578.569 -76.1178C579.867 -76.8672 578.755 -79.1987 577.281 -78.3478C576.491 -77.8913 575.807 -77.4968 575.114 -77.0967ZM583.58 -82.2252C582.122 -81.1428 583.621 -79.1553 584.955 -80.0459L586.982 -81.3366C588.403 -82.278 586.94 -84.4065 585.606 -83.5159L583.58 -82.2252ZM591.806 -87.5642C590.472 -86.6736 591.936 -84.545 593.269 -85.4356L595.332 -86.8674C596.665 -87.758 595.202 -89.8866 593.869 -88.996L591.806 -87.5642ZM599.834 -93.2703C598.588 -92.4305 599.963 -90.2512 601.333 -91.2829C601.973 -91.7734 602.702 -92.3146 603.343 -92.8051C604.589 -93.645 603.213 -95.8243 601.844 -94.7926C601.203 -94.3021 600.562 -93.8116 599.834 -93.2703ZM607.649 -99.3225C606.331 -98.2003 608.078 -96.3695 609.225 -97.3801L611.245 -98.908C612.423 -100.07 610.758 -101.961 609.616 -100.941L607.649 -99.3225ZM615.264 -105.742C614.035 -104.67 615.658 -102.648 616.893 -103.709L618.805 -105.402C619.947 -106.423 618.37 -108.365 617.14 -107.294L615.264 -105.742ZM622.6 -112.241C621.406 -111.31 623.03 -109.288 624.353 -110.4L626.124 -112.132C627.389 -113.345 625.467 -115.074 624.372 -113.973L622.6 -112.241ZM629.671 -119.176C628.54 -117.934 630.38 -116.143 631.511 -117.385L633.283 -119.118C634.466 -120.27 632.625 -122.06 631.442 -120.908L629.671 -119.176ZM636.647 -126.297C635.464 -125.145 637.269 -123.214 638.487 -124.507L640.119 -126.279C641.214 -127.38 639.549 -129.272 638.279 -128.07L636.647 -126.297ZM255.001 108.189C256.044 106.998 254.344 105.247 253.073 106.45L251.494 108.313C250.492 109.373 252.063 111.305 253.37 109.962L255.001 108.189ZM1.68622 190.394C0.0476308 190.148 -0.218206 192.686 1.36819 192.841L2.70082 193.143C4.47946 193.429 4.60525 190.852 3.1067 190.645L1.68622 190.394ZM10.4897 191.847C8.84137 191.607 8.58531 194.139 10.1303 194.425L12.6389 194.758C14.2775 195.004 14.6053 192.552 12.9569 192.311L10.4897 191.847ZM20.3814 193.382C18.8307 193.085 18.4248 195.583 20.0634 195.829L22.5623 196.168C24.2009 196.414 24.6068 193.916 22.8339 193.64L20.3814 193.382ZM30.2458 194.464C28.5716 194.359 28.518 196.881 30.1142 197.031L32.5609 197.279C34.323 197.333 34.3708 194.801 32.6925 194.712L30.2458 194.464ZM40.2239 195.359C38.5497 195.255 38.5059 197.771 40.0923 197.927L42.5747 198.034C44.2489 198.139 44.2967 195.606 42.7063 195.467L40.2239 195.359ZM50.1431 195.928C48.5469 195.778 48.369 198.264 50.0896 198.45L52.6598 198.506C54.1062 198.622 54.3779 196.094 52.5636 195.95L50.1431 195.928ZM60.0774 196.139C58.3675 196.175 58.6297 198.635 60.1117 198.61L62.682 198.666C64.3397 198.54 64.1653 196.028 62.5857 196.11L60.0774 196.139ZM70.021 195.983C68.3633 196.109 68.4856 198.53 70.2052 198.488L72.6768 198.374C74.3867 198.337 74.0723 195.787 72.5024 195.863L70.021 195.983ZM79.9935 195.448C78.3358 195.575 78.5102 198.086 80.1679 197.959L82.6395 197.845C84.2094 197.769 84.1131 195.213 82.4651 195.334L79.9935 195.448ZM89.8153 194.653C88.1219 194.921 88.612 197.37 90.2175 197.153L92.6369 196.948C94.3303 196.68 93.8758 194.09 92.3225 194.397L89.8153 194.653ZM99.6819 193.349C98.0764 193.567 98.4006 196.112 100.136 195.94L102.539 195.503C104.145 195.286 103.742 192.786 102.137 193.004L99.6819 193.349ZM109.398 191.785C107.669 192.194 108.521 194.662 109.94 194.324L112.431 193.837C114.16 193.428 113.354 191.041 111.889 191.298L109.398 191.785ZM119.133 189.847C117.492 190.206 118.204 192.634 119.711 192.246L122.149 191.668C123.79 191.31 123.16 188.821 121.571 189.27L119.133 189.847ZM128.695 187.407C127.281 187.755 127.684 190.255 129.413 189.846L131.799 189.178C133.564 188.628 132.546 186.256 131.081 186.739L128.695 187.407ZM138.147 184.575C136.605 185.104 137.551 187.531 139.005 187.053L141.427 186.244C142.97 185.715 142.086 183.372 140.534 183.907L138.147 184.575ZM147.515 181.416C146.061 181.895 146.769 184.338 148.409 183.753C149.207 183.534 149.952 183.224 150.831 182.944C152.146 182.426 151.516 179.937 149.885 180.517C149.058 180.887 148.261 181.107 147.515 181.416ZM156.778 177.85C155.2 178.52 156.26 180.761 157.75 180.141L159.986 179.212C161.564 178.542 160.452 176.211 159.014 176.921L156.778 177.85ZM165.776 173.847C164.286 174.466 165.32 176.843 166.888 176.178L169.159 175.108C170.51 174.449 169.626 172.106 167.96 172.827L165.776 173.847ZM174.575 169.477C173.101 170.327 174.477 172.507 175.775 171.757L177.994 170.597C179.468 169.746 178.232 167.606 176.794 168.316L174.575 169.477ZM183.301 164.8C181.915 165.6 183.063 167.791 184.589 167.03C185.282 166.63 186.063 166.179 186.756 165.779C188.054 165.03 186.942 162.698 185.468 163.549C184.687 164 183.994 164.4 183.301 164.8ZM191.767 159.672C190.257 160.664 191.808 162.742 193.142 161.851L195.169 160.56C196.59 159.619 195.127 157.49 193.793 158.381L191.767 159.672ZM200.003 154.327C198.669 155.218 200.045 157.397 201.414 156.365L203.476 154.933C204.81 154.043 203.399 152.005 202.065 152.895L200.003 154.327ZM207.969 148.536C206.775 149.466 208.15 151.646 209.52 150.614C210.16 150.123 210.889 149.582 211.53 149.092C212.776 148.252 211.4 146.073 210.031 147.104C209.39 147.595 208.749 148.085 207.969 148.536ZM215.845 142.569C214.528 143.691 216.285 145.516 217.422 144.511L219.386 142.909C220.615 141.837 218.951 139.945 217.809 140.966L215.845 142.569ZM223.461 136.149C222.232 137.221 223.803 139.153 225.038 138.092L226.992 136.495C228.134 135.474 226.51 133.451 225.275 134.513L223.461 136.149ZM230.735 129.566C229.593 130.587 231.217 132.609 232.488 131.407L234.311 129.764C235.53 128.472 233.648 126.812 232.559 127.924L230.735 129.566ZM237.868 122.716C236.737 123.958 238.525 125.658 239.62 124.556L241.48 122.773C242.611 121.531 240.822 119.831 239.639 120.983L237.868 122.716ZM244.762 115.655C243.667 116.756 245.419 118.597 246.602 117.445L248.322 115.622C249.417 114.521 247.7 112.539 246.481 113.832L244.762 115.655Z" fill="#CCCCCC"/>
</svg>
