<svg width="60" height="60" viewBox="0 0 60 60" fill="none" xmlns="http://www.w3.org/2000/svg">
<rect width="60" height="60" rx="3" fill="#71C3FD"/>
<path d="M29.8933 24.0266L30.68 25.8666C30.7333 26.0266 30.88 26.12 31.0267 26.1333L33.0267 26.32C33.4533 26.36 33.6133 26.88 33.3067 27.16L31.8 28.48C31.68 28.5866 31.6267 28.7466 31.6667 28.8933L32.1067 30.8533C32.2 31.2666 31.76 31.5866 31.3867 31.3733L29.6667 30.3466C29.5333 30.2666 29.36 30.2666 29.2267 30.3466L27.5067 31.3733C27.1467 31.5866 26.6933 31.2666 26.7867 30.8533L27.2267 28.8933C27.2667 28.7466 27.2133 28.5866 27.0933 28.48L25.5867 27.16C25.2667 26.88 25.44 26.36 25.8667 26.32L27.8667 26.1333C28.0267 26.12 28.16 26.0266 28.2267 25.88L29.0133 24.04C29.1733 23.64 29.72 23.64 29.8933 24.0266Z" stroke="white" stroke-miterlimit="10" stroke-linecap="round" stroke-linejoin="round"/>
<path d="M38.5165 27.9263C38.551 22.9189 34.5196 18.8317 29.5123 18.7972C24.5049 18.7628 20.4177 22.7941 20.3832 27.8015C20.3487 32.8089 24.3801 36.8961 29.3875 36.9306C34.3948 36.965 38.4821 32.9337 38.5165 27.9263Z" stroke="white" stroke-miterlimit="10" stroke-linecap="round" stroke-linejoin="round"/>
<path d="M28.2134 36.8398L25.96 42.5065L23.1067 39.2398L18.8 39.6398L21.6534 32.4932" stroke="white" stroke-miterlimit="10" stroke-linecap="round" stroke-linejoin="round"/>
<path d="M30.6667 36.8398L32.9334 42.5065L35.7734 39.2398L40.0934 39.6398L37.2267 32.4932" stroke="white" stroke-miterlimit="10" stroke-linecap="round" stroke-linejoin="round"/>
</svg>
