<svg width="20" height="16" viewBox="0 0 20 16" fill="none" xmlns="http://www.w3.org/2000/svg">
<path d="M19.7039 2.14003C19.0081 2.44836 18.2606 2.6567 17.4747 2.75086C18.2856 2.26569 18.8922 1.50208 19.1814 0.602528C18.4196 1.05502 17.5858 1.37352 16.7164 1.5442C16.1317 0.919916 15.3573 0.506133 14.5133 0.36709C13.6694 0.228047 12.8031 0.371521 12.0491 0.775239C11.295 1.17896 10.6954 1.82033 10.3432 2.59978C9.991 3.37923 9.90601 4.25315 10.1014 5.08586C8.5578 5.00836 7.04775 4.60715 5.66925 3.90828C4.29074 3.20941 3.07459 2.2285 2.09973 1.0292C1.76639 1.6042 1.57473 2.27086 1.57473 2.98086C1.57435 3.62002 1.73175 4.2494 2.03296 4.81314C2.33416 5.37688 2.76986 5.85756 3.30139 6.21253C2.68496 6.19291 2.08212 6.02635 1.54306 5.7267V5.77669C1.543 6.67315 1.85309 7.54201 2.42071 8.23586C2.98834 8.92971 3.77854 9.4058 4.65723 9.58336C4.08538 9.73812 3.48584 9.76092 2.90389 9.65003C3.15181 10.4214 3.63472 11.0959 4.28503 11.5791C4.93534 12.0624 5.72049 12.3302 6.53056 12.345C5.15542 13.4245 3.45713 14.0101 1.70889 14.0075C1.39921 14.0076 1.08979 13.9895 0.782227 13.9534C2.55679 15.0943 4.62251 15.6999 6.73223 15.6975C13.8739 15.6975 17.7781 9.78253 17.7781 4.65253C17.7781 4.48586 17.7739 4.31753 17.7664 4.15086C18.5258 3.60167 19.1813 2.92161 19.7022 2.14253L19.7039 2.14003Z" fill="#FA7436"/>
</svg>
